<svg width="1440" height="787" viewBox="0 0 1440 787" fill="none" xmlns="http://www.w3.org/2000/svg">
<g clip-path="url(#clip0_557_954)">
<rect width="1440" height="787" fill="white"/>
<path d="M554.114 380.521C534.316 398.118 520.284 411.447 519.055 436.683C517.721 464.081 540.901 474.533 554.114 499.148C572.399 533.209 566.9 562.901 598.564 587.401C640.795 620.077 692.997 573.089 739.427 600.582C797.411 634.917 746.096 720.423 807.04 750.154C852.135 772.152 889.425 735.321 937.886 750.154C973.082 760.927 1018.65 796 1018.65 796H1439.98V0H1111.93C1111.93 0 1068.92 28.9039 1044.94 51.0036C989.587 102.02 1008.33 175.061 937.886 206.88C888.816 229.045 848.138 197.139 798.276 217.768C730.949 245.624 744.103 319.912 679.325 352.441C635.186 374.605 590.233 348.419 554.114 380.521Z" fill="#75B0B8"/>
</g>
<defs>
<clipPath id="clip0_557_954">
<rect width="1440" height="787" fill="white"/>
</clipPath>
</defs>
</svg>
