<svg width="532" height="3368" viewBox="0 0 532 3368" fill="none" xmlns="http://www.w3.org/2000/svg">
<g clip-path="url(#clip0_550_914)">
<rect width="532" height="3368" fill="white"/>
<path d="M-87.4462 892.34C-101.29 920.481 -111.102 941.796 -111.961 982.153C-112.894 1025.97 -96.6855 1042.68 -87.4462 1082.05C-74.6607 1136.52 -78.5057 1184 -56.3645 1223.18C-26.8341 1275.43 9.66811 1200.29 42.1341 1244.26C82.6801 1299.17 46.7975 1435.91 89.4133 1483.45C120.946 1518.63 147.021 1459.73 180.907 1483.45C205.518 1500.68 214.443 1532.83 237.38 1556.77C343.499 1667.54 532 1556.77 532 1556.77V283.817C532 283.817 384.373 171.729 302.608 283.817C283.401 310.146 272.533 330.039 255.766 365.381C217.06 446.966 230.164 563.772 180.907 614.656C146.595 650.101 118.151 599.078 83.2845 632.068C36.2058 676.614 45.4043 795.415 0.108017 847.434C-30.7562 882.879 -62.1898 841.002 -87.4462 892.34Z" fill="#75B0B8"/>
<path d="M619.446 2509.34C633.29 2537.48 643.102 2558.8 643.961 2599.15C644.894 2642.97 628.685 2659.68 619.446 2699.05C606.661 2753.52 610.506 2801 588.364 2840.18C558.834 2892.43 522.332 2817.29 489.866 2861.26C449.32 2916.17 485.203 3052.91 442.587 3100.45C411.054 3135.63 384.979 3076.73 351.093 3100.45C326.482 3117.68 317.557 3149.83 294.62 3173.77C188.501 3284.54 0 3173.77 0 3173.77V1900.82C0 1900.82 147.627 1788.73 229.392 1900.82C248.599 1927.15 259.467 1947.04 276.234 1982.38C314.94 2063.97 301.836 2180.77 351.093 2231.66C385.405 2267.1 413.849 2216.08 448.715 2249.07C495.794 2293.61 486.596 2412.42 531.892 2464.43C562.756 2499.88 594.19 2458 619.446 2509.34Z" fill="#75B0B8"/>
</g>
<defs>
<clipPath id="clip0_550_914">
<rect width="532" height="3368" fill="white"/>
</clipPath>
</defs>
</svg>
