<svg width="900" height="1700" viewBox="0 0 900 1700" fill="none" xmlns="http://www.w3.org/2000/svg">
<g clip-path="url(#clip0_557_919)">
<rect width="900" height="1700" fill="white"/>
<path d="M-26.2837 344.721C-46.9855 360.662 -61.6572 372.737 -62.9423 395.598C-64.3375 420.419 -40.0996 429.888 -26.2837 452.187C-7.16504 483.044 -12.9145 509.942 20.1941 532.137C64.3521 561.739 118.935 519.172 167.483 544.078C228.113 575.182 174.457 652.644 238.182 679.578C285.333 699.506 324.325 666.14 374.997 679.578C411.799 689.337 425.144 707.547 459.442 721.11C618.127 783.862 900 721.11 900 721.11V0H556.98C556.98 0 512.009 26.1846 486.936 46.2051C429.057 92.4221 448.652 158.591 374.997 187.416C323.689 207.495 281.154 178.591 229.017 197.28C158.618 222.515 172.373 289.814 104.64 319.282C58.4872 339.361 11.4832 315.639 -26.2837 344.721Z" fill="#75B0B8"/>
</g>
<defs>
<clipPath id="clip0_557_919">
<rect width="900" height="1700" fill="white"/>
</clipPath>
</defs>
</svg>
