<svg width="1420" height="1065" viewBox="0 0 1420 1065" fill="none" xmlns="http://www.w3.org/2000/svg">
<g clip-path="url(#clip0_368_4322)">
<rect width="1420" height="1065" fill="white"/>
<path d="M-5 760.484C-5 760.484 87.7836 619.285 165 607.483C228.461 597.784 259.317 674.762 323 669.129C415.868 660.914 436.43 509.951 528.5 490.133C632.784 467.686 685.414 651.676 786.5 607.483C875.777 568.452 862.843 386.195 953.5 354.957C1048.84 322.108 1095.52 541.805 1187 490.133C1257.32 450.411 1230.84 270.085 1306 265.088C1356.35 261.741 1420 354.957 1420 354.957V1065H-5V760.484Z" fill="#CDEEEB"/>
<path d="M-40 776C-40 776 56.7554 625.82 137.277 613.267C203.454 602.951 235.632 684.826 302.041 678.834C398.884 670.097 420.326 509.532 516.338 488.453C625.085 464.578 679.969 660.271 785.382 613.267C878.481 571.754 864.993 377.904 959.53 344.679C1058.95 309.74 1107.63 543.412 1203.03 488.453C1276.36 446.204 1248.74 254.408 1327.12 249.094C1379.63 245.533 1446 344.679 1446 344.679" stroke="black"/>
<path d="M-19 865C-19 865 77.7554 714.82 158.277 702.267C224.454 691.951 256.632 773.826 323.041 767.834C419.884 759.097 441.326 598.532 537.338 577.453C646.085 553.578 700.969 749.271 806.382 702.267C899.481 660.754 885.993 466.904 980.53 433.679C1079.95 398.74 1128.63 632.412 1224.03 577.453C1297.36 535.204 1269.74 343.408 1348.12 338.094C1400.63 334.533 1467 433.679 1467 433.679" stroke="black"/>
</g>
<defs>
<clipPath id="clip0_368_4322">
<rect width="1420" height="1065" fill="white"/>
</clipPath>
</defs>
</svg>
