<svg width="800" height="1452" viewBox="0 0 800 1452" fill="none" xmlns="http://www.w3.org/2000/svg">
<g clip-path="url(#clip0_368_4085)">
<rect width="800" height="1452" fill="white"/>
<path d="M-8 965.394C-8 965.394 44.7402 739.298 88.6316 720.401C124.704 704.87 142.243 828.132 178.442 819.112C231.23 805.957 242.918 564.228 295.253 532.494C354.53 496.55 384.446 791.165 441.905 720.401C492.652 657.903 485.3 366.063 536.832 316.044C591.023 263.443 617.561 615.235 669.558 532.494C709.53 468.889 694.478 180.142 737.2 172.141C765.82 166.781 802 316.044 802 316.044V1453H-8V965.394Z" fill="#CDEEEB"/>
<path d="M-30.1574 945.241C-30.1574 945.241 24.8174 725.584 71.1749 707.071C109.274 691.856 128.268 811.427 166.524 802.53C222.312 789.556 233.808 554.885 289.051 523.879C351.621 488.76 384.32 774.601 444.843 705.692C498.296 644.832 489.474 361.597 543.8 312.847C600.932 261.58 630.262 602.93 684.964 522.418C727.016 460.526 710.061 180.323 755.22 172.39C785.474 167.076 824.277 311.812 824.277 311.812" stroke="black"/>
<path d="M-27.1574 1199.24C-27.1574 1199.24 27.8174 979.583 74.1749 961.07C112.274 945.855 131.268 1065.43 169.524 1056.53C225.312 1043.56 236.808 808.884 292.051 777.878C354.621 742.76 387.32 1028.6 447.843 959.691C501.296 898.831 492.474 615.597 546.8 566.846C603.932 515.579 633.262 856.929 687.964 776.417C730.016 714.525 713.061 434.322 758.22 426.389C788.474 421.075 827.277 565.811 827.277 565.811" stroke="black"/>
</g>
<defs>
<clipPath id="clip0_368_4085">
<rect width="800" height="1452" fill="white"/>
</clipPath>
</defs>
</svg>
