<svg width="1420" height="1065" viewBox="0 0 1420 1065" fill="none" xmlns="http://www.w3.org/2000/svg">
<g clip-path="url(#clip0_368_4322)">
<rect width="1420" height="1065" fill="white"/>
<path d="M-5 760.484C-5 760.484 87.7836 619.285 165 607.483C228.461 597.784 259.317 674.762 323 669.129C415.868 660.914 436.43 509.951 528.5 490.133C632.784 467.686 685.414 651.676 786.5 607.483C875.777 568.452 862.843 386.195 953.5 354.957C1048.84 322.108 1095.52 541.805 1187 490.133C1257.32 450.411 1230.84 270.085 1306 265.088C1356.35 261.741 1420 354.957 1420 354.957V1065H-5V760.484Z" fill="#CDEEEB"/>
<path d="M-61 776C-61 776 35.7554 625.82 116.277 613.267C182.454 602.951 214.632 684.826 281.041 678.834C377.884 670.097 399.326 509.532 495.338 488.453C604.085 464.578 658.969 660.271 764.382 613.267C857.481 571.754 843.993 377.904 938.53 344.679C1037.95 309.74 1086.63 543.412 1182.03 488.453C1255.36 446.204 1227.74 254.408 1306.12 249.094C1358.63 245.533 1425 344.679 1425 344.679" stroke="black"/>
<path d="M-61 946C-61 946 35.7554 795.82 116.277 783.267C182.454 772.951 214.632 854.826 281.041 848.834C377.884 840.097 399.326 679.532 495.338 658.453C604.085 634.578 658.969 830.271 764.382 783.267C857.481 741.754 843.993 547.904 938.53 514.679C1037.95 479.74 1086.63 713.412 1182.03 658.453C1255.36 616.204 1227.74 424.408 1306.12 419.094C1358.63 415.533 1425 514.679 1425 514.679" stroke="black"/>
</g>
<defs>
<clipPath id="clip0_368_4322">
<rect width="1420" height="1065" fill="white"/>
</clipPath>
</defs>
</svg>
