<svg width="375" height="872" viewBox="0 0 375 872" fill="none" xmlns="http://www.w3.org/2000/svg">
<g clip-path="url(#clip0_368_4797)">
<rect width="375" height="872" fill="white"/>
<path d="M0 684.535C0 684.535 24.9376 595.756 45.6912 588.336C62.7477 582.238 71.041 630.638 88.1572 627.096C113.117 621.931 118.644 527.013 143.39 514.552C171.418 500.439 185.564 616.123 212.733 588.336C236.728 563.796 233.252 449.201 257.618 429.561C283.242 408.906 295.79 547.041 320.376 514.552C339.276 489.577 332.16 376.197 352.36 373.055C365.893 370.951 383 429.561 383 429.561V876H0V684.535Z" fill="#CDEEEB"/>
<path d="M-11 701C-11 701 13.9376 607.529 34.6912 599.717C51.7477 593.296 60.041 644.254 77.1572 640.525C102.117 635.087 107.644 535.153 132.39 522.033C160.418 507.174 174.564 628.972 201.733 599.717C225.728 573.879 222.252 453.229 246.618 432.55C272.242 410.804 284.79 556.239 309.376 522.033C328.276 495.738 321.16 376.366 341.36 373.058C354.893 370.842 372 432.55 372 432.55" stroke="black"/>
<path d="M-11 833C-11 833 14.9794 739.529 36.6 731.717C54.369 725.296 63.0088 776.254 80.84 772.525C106.843 767.087 112.6 667.153 138.38 654.033C167.579 639.174 182.316 760.972 210.62 731.717C235.618 705.879 231.996 585.229 257.38 564.55C284.074 542.804 297.146 688.239 322.76 654.033C342.45 627.738 335.036 508.366 356.08 505.058C370.178 502.842 388 564.55 388 564.55" stroke="black"/>
</g>
<defs>
<clipPath id="clip0_368_4797">
<rect width="375" height="872" fill="white"/>
</clipPath>
</defs>
</svg>
