<svg width="146" height="186" viewBox="0 0 146 186" fill="none" xmlns="http://www.w3.org/2000/svg">
<path d="M124.895 72.5156C124.895 72.5156 117.243 59.5565 109.72 52.5206C106.43 49.4434 101.985 46.5875 99.4483 42.8989C93.8302 34.7305 101.517 24.703 98.9889 15.1924C98.1426 12.0086 98.0294 10.501 98.0294 10.501" stroke="#1691A1" stroke-width="0.3"/>
<path d="M77.8643 4.88661L75.0087 5.57758L69.9613 4.3252" stroke="#4AA4B0" stroke-width="0.5"/>
<path d="M76.958 7.08914L75.1362 7.65055L70.8256 6.35498" stroke="#4AA4B0" stroke-width="0.5"/>
<path d="M24.0127 71.0013C24.0127 71.0013 30.442 59.6439 37.514 52.6289C40.6069 49.5609 46.4739 43.6999 48.8589 40.0223C54.1403 31.8781 46.4565 24.7765 48.8331 15.2942C49.6287 12.1199 49.4973 10.4385 49.4973 10.4385" stroke="#1691A1" stroke-width="0.3"/>
<path d="M71.2804 44.4946L70.914 44.8267H76.6623L76.2405 44.4946H71.2804Z" stroke="#1F545B" stroke-width="2"/>
<path d="M76.0088 48.6768C76.0088 48.6768 74.7428 49.195 73.8927 49.195C73.0426 49.195 71.7766 48.6768 71.7766 48.6768" stroke="#1F545B" stroke-width="0.5"/>
<path d="M90.5195 45.196C90.3044 45.2631 81.4756 58.6995 73.1746 58.1621C65.0842 57.6383 57.8712 45.0493 57.8712 45.0493" stroke="#45929C" stroke-width="0.5"/>
<path d="M85.492 51.2681C85.492 51.2681 83.4034 60.2348 85.2054 65.2229C88.8781 75.3897 112.284 78.7341 112.284 78.7341" stroke="#45929C" stroke-width="0.5"/>
<path d="M62.21 51.1816C62.21 51.1816 64.292 60.1484 62.4957 65.1365C58.8344 75.3033 35.501 78.6477 35.501 78.6477" stroke="#45929C" stroke-width="0.5"/>
<path d="M70.3072 4.40894C67.289 3.37764 61.9044 2.73992 56.4677 4.62988C43.4976 9.13866 50.4314 21.6465 51.0939 39.3997C51.7564 57.1529 34.3589 58.9298 23.6359 71.4439C12.9128 83.9579 16.8634 97.9632 16.8634 97.9632L19.3294 106.95L20.8669 115.047" stroke="#4AA4B0" stroke-width="0.5"/>
<path d="M111.938 78.561C117.719 87.6953 120.168 94.4065 121.468 105.237C123.548 122.57 110.903 148.608 110.903 148.608" stroke="#4AA4B0" stroke-width="0.5"/>
<path d="M35.7634 78.3882C29.128 87.7836 26.9751 94.5354 25.4833 105.676C23.0959 123.504 37.8319 150.508 37.8319 150.508" stroke="#4AA4B0" stroke-width="0.5"/>
<path d="M76.8721 37.4487L75.7 38.8307H72.2572L71.0852 37.4487" stroke="#4AA4B0" stroke-width="0.5"/>
<path d="M76.0088 36.2396L75.1451 32.8711" stroke="#4AA4B0" stroke-width="0.5"/>
<path d="M72.208 36.2396L73.0717 32.8711" stroke="#4AA4B0" stroke-width="0.5"/>
<path d="M48.4805 151.44C48.4805 151.44 46.1316 147.945 45.1982 145.445C44.1165 142.547 43.8329 140.759 43.6977 137.67C43.6758 137.17 43.6839 136.706 43.7131 136.265M40.5092 127.366C40.5092 127.366 40.461 123.639 40.8843 121.184C41.1857 119.435 40.8429 118.119 42.0097 116.781C42.7976 115.877 44.6355 115.189 44.6355 115.189C44.6355 115.189 44.4473 116.397 44.1666 117.062C43.341 119.017 43.5781 120.096 43.6977 122.214C43.8558 125.014 44.5823 126.529 44.6355 129.333C44.6881 132.109 43.8753 133.816 43.7131 136.265M38.2445 150.335L34.0384 140.386L31.4125 126.523C31.4125 126.523 30.6557 123.155 31.0868 120.247M43.7131 136.265C43.7131 136.265 43.0275 139.017 42.291 140.667C41.2444 143.012 38.7274 146.194 38.7274 146.194C38.7274 146.194 40.2031 142.444 40.603 139.918C40.9008 138.036 41.1972 136.927 40.8843 135.047C40.622 133.472 39.4776 131.206 39.4776 131.206C39.4776 131.206 36.0605 124.39 35.914 122.963C35.7675 121.537 35.6853 120.737 35.5388 119.31C35.5388 119.31 38.7274 117.206 40.5092 115.729C42.291 114.252 43.135 113.971 44.1666 112.378C45.1982 110.786 44.4479 108.163 44.4479 108.163C44.4479 108.163 40.2278 113.128 38.7274 113.971C38.1922 114.271 37.2073 114.681 36.1263 115.189M36.1263 115.189C34.1762 116.105 31.9131 117.342 31.4125 118.842C31.2645 119.285 31.159 119.76 31.0868 120.247M36.1263 115.189C36.1263 115.189 39.7707 112.488 41.3532 110.13C42.3108 108.703 43.0279 107.888 43.3226 106.196C43.4983 105.187 43.3226 103.573 43.3226 103.573L37.602 110.973L32.069 116.219L31.0868 120.247" stroke="#1F545B" stroke-width="0.3"/>
<path d="M31.1336 120.402L31.7057 115.443L35.0432 111.343L38.476 105.049L40.0971 100.186C40.0971 100.186 40.7522 101.181 40.9553 101.902C41.2479 102.942 41.1195 103.6 40.9553 104.668C40.7312 106.124 40.2981 106.888 39.6203 108.196C39.0263 109.342 37.7284 110.79 37.7284 110.79" stroke="#1F545B" stroke-width="0.3"/>
<path d="M38.2869 117.827C38.2869 117.827 38.2341 120.228 38.4776 121.737C38.8811 124.237 39.6609 125.517 40.6708 127.84C41.3482 129.397 42.0494 130.135 42.5779 131.749C42.8055 132.444 43.0547 133.561 43.0547 133.561" stroke="#1F545B" stroke-width="0.3"/>
<path d="M99.8818 151.564C99.8818 151.564 102.27 148.007 103.219 145.462C104.319 142.512 104.608 140.692 104.745 137.547C104.767 137.039 104.759 136.565 104.729 136.117M107.987 127.058C107.987 127.058 108.036 123.264 107.606 120.764C107.299 118.984 107.648 117.645 106.461 116.283C105.66 115.363 103.791 114.662 103.791 114.662C103.791 114.662 103.983 115.892 104.268 116.569C105.108 118.559 104.867 119.657 104.745 121.813C104.584 124.663 103.845 126.206 103.791 129.06C103.738 131.886 104.564 133.624 104.729 136.117M110.652 148.99L114.657 139.836L117.237 126.2C117.237 126.2 118.006 122.772 117.568 119.811M104.729 136.117C104.729 136.117 105.426 138.919 106.175 140.598C107.24 142.985 109.799 146.224 109.799 146.224C109.799 146.224 108.298 142.407 107.892 139.836C107.589 137.92 107.288 136.79 107.606 134.877C107.872 133.273 109.036 130.967 109.036 130.967C109.036 130.967 112.511 124.028 112.66 122.576C112.808 121.124 112.892 120.31 113.041 118.857C113.041 118.857 109.799 116.715 107.987 115.211C106.175 113.708 105.317 113.422 104.268 111.801C103.219 110.18 103.982 107.51 103.982 107.51C103.982 107.51 108.273 112.564 109.799 113.422C110.343 113.728 111.344 114.145 112.444 114.662M112.444 114.662C114.427 115.594 116.728 116.853 117.237 118.38C117.387 118.832 117.494 119.315 117.568 119.811M112.444 114.662C112.444 114.662 108.738 111.913 107.129 109.512C106.155 108.06 105.426 107.23 105.126 105.507C104.948 104.48 105.126 102.837 105.126 102.837L110.943 110.371L116.569 115.71L117.568 119.811" stroke="#1F545B" stroke-width="0.3"/>
<path d="M117.523 119.666L116.951 114.707L113.613 110.607L110.18 104.313L108.559 99.4502C108.559 99.4502 107.904 100.445 107.701 101.167C107.408 102.206 107.537 102.865 107.701 103.932C107.925 105.388 108.358 106.152 109.036 107.46C109.63 108.606 110.657 110.035 110.657 110.035" stroke="#1F545B" stroke-width="0.3"/>
<path d="M110.37 117.091C110.37 117.091 110.423 119.491 110.18 121C109.776 123.501 108.996 124.781 107.986 127.103C107.309 128.661 106.608 129.398 106.079 131.013C105.852 131.708 105.603 132.825 105.603 132.825" stroke="#1F545B" stroke-width="0.3"/>
<mask id="path-22-inside-1_337_2460" fill="white">
<path d="M52.215 102.412L55.5447 103.955V119.142L68.5391 129.943L52.621 122.39L52.215 102.412Z"/>
</mask>
<path d="M55.5447 103.955L63.954 85.8085L75.5447 91.1798V103.955H55.5447ZM52.215 102.412L32.2191 102.818L31.5683 70.8005L60.6242 84.2654L52.215 102.412ZM52.621 122.39L44.0474 140.459L32.8764 135.159L32.6252 122.797L52.621 122.39ZM68.5391 129.943L81.3238 114.563L59.9654 148.012L68.5391 129.943ZM55.5447 119.142L42.76 134.522L35.5447 128.524V119.142H55.5447ZM47.1355 122.101L43.8057 120.558L60.6242 84.2654L63.954 85.8085L47.1355 122.101ZM72.2108 102.005L72.6169 121.984L32.6252 122.797L32.2191 102.818L72.2108 102.005ZM61.1946 104.321L77.1127 111.874L59.9654 148.012L44.0474 140.459L61.1946 104.321ZM55.7543 145.323L42.76 134.522L68.3295 103.762L81.3238 114.563L55.7543 145.323ZM35.5447 119.142V103.955H75.5447V119.142H35.5447Z" fill="#4AA4B0" mask="url(#path-22-inside-1_337_2460)"/>
<mask id="path-24-inside-2_337_2460" fill="white">
<path d="M94.58 102.4L91.2502 103.943V119.13L78.2559 129.932L94.1739 122.379L94.58 102.4Z"/>
</mask>
<path d="M91.2502 103.943L82.841 85.7968L71.2502 91.1681V103.943H91.2502ZM94.58 102.4L114.576 102.806L115.227 70.7888L86.1707 84.2537L94.58 102.4ZM94.1739 122.379L102.748 140.448L113.918 135.147L114.17 122.785L94.1739 122.379ZM78.2559 129.932L65.4711 114.551L86.8295 148.001L78.2559 129.932ZM91.2502 119.13L104.035 134.51L111.25 128.513V119.13H91.2502ZM99.6594 122.089L102.989 120.546L86.1707 84.2537L82.841 85.7968L99.6594 122.089ZM74.5841 101.993L74.178 121.972L114.17 122.785L114.576 102.806L74.5841 101.993ZM85.6003 104.31L69.6822 111.862L86.8295 148.001L102.748 140.448L85.6003 104.31ZM91.0406 145.312L104.035 134.51L78.4654 103.75L65.4711 114.551L91.0406 145.312ZM111.25 119.13V103.943H71.2502V119.13H111.25Z" fill="#4AA4B0" mask="url(#path-24-inside-2_337_2460)"/>
<mask id="path-26-inside-3_337_2460" fill="white">
<path d="M51.6458 123.446V108.99H48.5596L48.2348 130.999L68.376 131.649L51.6458 123.446Z"/>
</mask>
<path d="M51.6458 108.99V88.9897H71.6458V108.99H51.6458ZM51.6458 123.446L42.8413 141.404L31.6458 135.915V123.446H51.6458ZM68.376 131.649L77.1805 113.691L67.7312 151.638L68.376 131.649ZM48.2348 130.999L47.59 150.988L27.9469 150.355L28.237 130.704L48.2348 130.999ZM48.5596 108.99L28.5618 108.695L28.8527 88.9897H48.5596V108.99ZM71.6458 108.99V123.446H31.6458V108.99H71.6458ZM60.4503 105.488L77.1805 113.691L59.5715 149.606L42.8413 141.404L60.4503 105.488ZM67.7312 151.638L47.59 150.988L48.8796 111.009L69.0208 111.659L67.7312 151.638ZM28.237 130.704L28.5618 108.695L68.5575 109.285L68.2326 131.294L28.237 130.704ZM48.5596 88.9897H51.6458V128.99H48.5596V88.9897Z" fill="#1F545B" mask="url(#path-26-inside-3_337_2460)"/>
<mask id="path-28-inside-4_337_2460" fill="white">
<path d="M95.7458 122.959V108.502H98.832L99.1568 130.512L79.0156 131.161L95.7458 122.959Z"/>
</mask>
<path d="M95.7458 108.502V88.5024H75.7458V108.502H95.7458ZM95.7458 122.959L104.55 140.916L115.746 135.427V122.959H95.7458ZM79.0156 131.161L70.2111 113.204L79.6605 151.151L79.0156 131.161ZM99.1568 130.512L99.8016 150.501L119.445 149.868L119.155 130.216L99.1568 130.512ZM98.832 108.502L118.83 108.207L118.539 88.5024H98.832V108.502ZM75.7458 108.502V122.959H115.746V108.502H75.7458ZM86.9413 105.001L70.2111 113.204L87.8201 149.119L104.55 140.916L86.9413 105.001ZM79.6605 151.151L99.8016 150.501L98.512 110.522L78.3708 111.172L79.6605 151.151ZM119.155 130.216L118.83 108.207L78.8341 108.798L79.159 130.807L119.155 130.216ZM98.832 88.5024H95.7458V128.502H98.832V88.5024Z" fill="#1F545B" mask="url(#path-28-inside-4_337_2460)"/>
<mask id="path-30-inside-5_337_2460" fill="white">
<path d="M89.4226 118.248L90.0723 98.5132L73.6669 112.157V131.161L89.4226 118.248Z"/>
</mask>
<path d="M90.0723 98.5132L77.2836 83.1363L111.527 54.6566L110.061 99.1713L90.0723 98.5132ZM89.4226 118.248L109.412 118.906L109.113 127.969L102.1 133.717L89.4226 118.248ZM73.6669 131.161L86.3447 146.63L53.6669 173.412L53.6669 131.161H73.6669ZM73.6669 112.157H53.6669V102.778L60.8782 96.7803L73.6669 112.157ZM110.061 99.1713L109.412 118.906L69.4334 117.59L70.0831 97.8551L110.061 99.1713ZM102.1 133.717L86.3447 146.63L60.9892 115.693L76.7448 102.78L102.1 133.717ZM53.6669 131.161V112.157H93.6669V131.161H53.6669ZM60.8782 96.7803L77.2836 83.1363L102.861 113.89L86.4557 127.534L60.8782 96.7803Z" fill="#4AA4B0" mask="url(#path-30-inside-5_337_2460)"/>
<mask id="path-32-inside-6_337_2460" fill="white">
<path d="M56.8442 118.654L56.1133 98.5942L72.5186 112.238V131.08L56.8442 118.654Z"/>
</mask>
<path d="M56.1133 98.5942L68.902 83.2173L34.4971 54.6034L36.1265 99.3225L56.1133 98.5942ZM56.8442 118.654L36.8575 119.382L37.1933 128.598L44.4198 134.327L56.8442 118.654ZM72.5186 131.08L60.0941 146.753L92.5186 172.457V131.08H72.5186ZM72.5186 112.238H92.5186V102.859L85.3073 96.8614L72.5186 112.238ZM36.1265 99.3225L36.8575 119.382L76.8309 117.926L76.1 97.866L36.1265 99.3225ZM44.4198 134.327L60.0941 146.753L84.9431 115.407L69.2687 102.982L44.4198 134.327ZM92.5186 131.08V112.238H52.5186V131.08H92.5186ZM85.3073 96.8614L68.902 83.2173L43.3246 113.971L59.7299 127.615L85.3073 96.8614Z" fill="#4AA4B0" mask="url(#path-32-inside-6_337_2460)"/>
<path d="M112.112 78.9437C112.112 78.9437 89.6386 88.2519 74.4759 88.5723C58.8178 88.9032 35.5873 78.6475 35.5873 78.6475" stroke="#4AA4B0" stroke-width="0.5"/>
<path d="M110.47 149.213L99.784 151.459H48.8436L37.5723 150.336" stroke="#4AA4B0" stroke-width="0.5"/>
<path d="M76.0088 9.26303C76.0088 9.26303 73.3345 8.60003 71.5893 8.60059C67.6498 8.60185 62.0875 11.9864 62.0875 11.9864L60.7856 19.2649C60.7856 19.2649 65.5673 19.0548 68.0777 20.5162C69.7898 21.5129 70.5084 22.798 70.5084 22.798C70.5084 22.798 67.5584 21.3843 66.0153 21.1787C63.8056 20.8842 61.0563 21.7675 61.0563 21.7675C61.0563 21.7675 60.6562 23.4677 61.0563 24.4257C61.9451 26.5534 65.2051 24.1965 66.8992 25.3005L69.4035 27.2227C69.4035 27.2227 66.8938 26.9066 65.2787 26.9199C63.8263 26.9318 62.8726 26.5767 61.5719 27.2227C58.347 28.8244 62.8273 32.9014 62.0875 36.4233C61.3449 39.9586 57.8708 45.3948 57.8708 45.3948" stroke="#45929C" stroke-width="0.5"/>
<path d="M75.9209 9.24809C75.9209 9.24809 77.3172 9.11859 79.0743 9.11914C83.0407 9.1204 86.8838 12.5573 86.8838 12.5573L88.1946 19.7923C88.1946 19.7923 83.3803 19.5834 80.8528 21.0361C79.129 22.0268 78.4055 23.3042 78.4055 23.3042C78.4055 23.3042 81.3756 21.8989 82.9293 21.6946C85.1541 21.4019 87.9221 22.2799 87.9221 22.2799C87.9221 22.2799 88.325 23.9699 87.9221 24.9222C87.0272 27.0371 83.745 24.6943 82.0393 25.7918L79.518 27.7024C79.518 27.7024 82.0447 27.3882 83.6709 27.4014C85.1331 27.4133 86.0934 27.0603 87.4029 27.7024C90.6498 29.2945 86.139 33.3471 86.8838 36.848C87.6315 40.3622 90.5177 45.4815 90.5177 45.4815" stroke="#45929C" stroke-width="0.5"/>
<path fill-rule="evenodd" clip-rule="evenodd" d="M71.1711 6.11161C71.1711 6.11161 71.1713 6.11171 71.0255 6.44981C70.8798 6.78791 70.8799 6.78796 70.8799 6.78796L70.8773 6.78688L70.8674 6.78266C70.8582 6.77882 70.8441 6.77293 70.8253 6.76519C70.7875 6.7497 70.7307 6.72678 70.6562 6.69785C70.5071 6.63999 70.2874 6.55814 70.0085 6.46369C69.4504 6.27468 68.6567 6.03579 67.7177 5.83738C65.8329 5.43916 63.395 5.21109 61.1064 5.84728C59.1076 6.40288 57.6067 7.3331 56.4834 8.55596C55.358 9.78106 54.5958 11.3173 54.1035 13.1066C53.1151 16.6985 53.2284 21.2507 53.6236 26.1975C53.7434 27.6967 53.889 29.2322 54.0363 30.7844C54.3725 34.3271 54.7169 37.957 54.7802 41.4416C54.8714 46.4569 54.3846 51.2441 52.4238 55.1408C48.9148 62.1142 43.7554 64.7771 38.7235 67.3741L38.5655 67.4556C33.4892 70.0762 28.5589 72.6754 25.3212 79.5785C23.1752 84.154 21.9546 87.5537 21.258 91.0632C20.5606 94.5765 20.3848 98.2164 20.3471 103.283C20.2603 114.933 22.0184 121.816 27.0147 132.355C28.6147 135.731 31.251 139.741 33.497 142.918C34.6182 144.504 35.6389 145.878 36.3793 146.855C36.7494 147.344 37.0494 147.733 37.2566 148C37.3602 148.133 37.4407 148.236 37.4952 148.306C37.5224 148.34 37.5431 148.367 37.557 148.384L37.5775 148.41C37.5775 148.41 37.5778 148.411 37.289 148.639C37.0003 148.868 37.0001 148.868 37.0001 148.868L36.9785 148.84C36.9642 148.822 36.9431 148.795 36.9155 148.76C36.8603 148.69 36.7791 148.586 36.6747 148.451C36.4658 148.182 36.1641 147.791 35.7921 147.3C35.048 146.317 34.0224 144.937 32.8954 143.343C30.645 140.16 27.9777 136.107 26.3491 132.671C21.3108 122.042 19.5228 115.051 19.6105 103.277C19.6483 98.2032 19.8238 94.5051 20.5354 90.9199C21.2478 87.331 22.4939 83.8719 24.6542 79.2659C28.0053 72.1211 33.1411 69.4272 38.2276 66.8014L38.3508 66.7378C43.3899 64.1368 48.3646 61.569 51.7658 54.8099C53.6451 51.0751 54.1342 46.4334 54.0437 41.455C53.9809 37.9994 53.6409 34.4168 53.306 30.8876C53.158 29.3282 53.011 27.7792 52.8893 26.2561C52.4944 21.3122 52.3668 16.6417 53.3932 12.9113C53.9083 11.0394 54.7175 9.38963 55.9408 8.05792C57.1662 6.72396 58.7911 5.72657 60.909 5.13785C63.3596 4.45665 65.9306 4.7072 67.87 5.11695C68.843 5.32253 69.6652 5.56996 70.2449 5.76627C70.5349 5.86449 70.7647 5.95006 70.9228 6.01144C71.0019 6.04214 71.0631 6.0668 71.105 6.08399C71.1259 6.09258 71.142 6.09931 71.1532 6.10399L71.1661 6.10945L71.1711 6.11161Z" fill="#4AA4B0"/>
<path fill-rule="evenodd" clip-rule="evenodd" d="M76.7121 6.80301C76.7121 6.80301 76.725 6.75141 76.8708 7.08951C77.0165 7.42761 76.9603 7.45659 76.9603 7.45659L77.0036 7.47921L77.0058 7.47829L77.0157 7.47407C77.0249 7.47022 77.039 7.46434 77.0578 7.45659C77.0956 7.44111 77.1524 7.41819 77.2269 7.38926C77.3759 7.33139 77.5955 7.24955 77.8743 7.1551C78.4323 6.96609 79.2258 6.72719 80.1646 6.52879C82.0488 6.13057 84.486 5.9025 86.7741 6.53869C88.7722 7.09429 90.2728 8.0245 91.3958 9.24737C92.5209 10.4725 93.2829 12.0087 93.7751 13.798C94.7632 17.3899 94.6499 21.9421 94.2548 26.8889C94.1351 28.3881 93.9894 29.9236 93.8422 31.4758C93.5061 35.0185 93.1618 38.6484 93.0985 42.133C93.0074 47.1483 93.494 51.9355 95.4543 55.8322C98.9623 62.8056 104.12 65.4685 109.151 68.0655L109.309 68.1471C114.384 70.7676 119.313 73.3668 122.55 80.2699C124.695 84.8454 125.915 88.2451 126.612 91.7546C127.309 95.2679 127.485 98.9078 127.522 103.974C127.609 115.625 125.851 122.507 120.856 133.047C119.257 136.422 116.621 140.432 114.376 143.609C113.255 145.195 112.235 146.569 111.494 147.546C111.124 148.035 110.825 148.424 110.617 148.691C110.514 148.825 110.433 148.928 110.379 148.997C110.352 149.032 110.331 149.058 110.317 149.076L110.297 149.102L110.296 149.102C110.296 149.102 110.296 149.102 110.585 149.331C110.874 149.559 110.874 149.559 110.874 149.559L110.895 149.532C110.91 149.513 110.931 149.487 110.958 149.452C111.013 149.381 111.095 149.277 111.199 149.143C111.408 148.874 111.71 148.482 112.081 147.991C112.825 147.009 113.851 145.628 114.977 144.034C117.227 140.851 119.894 136.798 121.522 133.362C126.559 122.734 128.346 115.742 128.259 103.969C128.221 98.8946 128.045 95.1965 127.334 91.6113C126.622 88.0224 125.376 84.5633 123.216 79.9573C119.866 72.8125 114.732 70.1186 109.647 67.4928L109.523 67.4292C104.486 64.8282 99.5123 62.2604 96.1121 55.5013C94.2333 51.7665 93.7443 47.1248 93.8348 42.1464C93.8976 38.6908 94.2375 35.1082 94.5723 31.579C94.7203 30.0196 94.8672 28.4706 94.9889 26.9475C95.3837 22.0036 95.5113 17.3331 94.4851 13.6027C93.9702 11.7308 93.1612 10.081 91.9382 8.74932C90.7132 7.41537 89.0886 6.41798 86.9713 5.82926C84.5214 5.14805 81.9511 5.39861 80.0123 5.80836C79.0395 6.01394 78.2176 6.26137 77.638 6.45768C77.3481 6.55589 77.1184 6.64146 76.9603 6.70285C76.8813 6.73354 76.8201 6.75821 76.7782 6.77539C76.7573 6.78399 76.7411 6.79072 76.73 6.7954L76.7171 6.80086L76.7135 6.8024L76.7121 6.80301Z" fill="#4AA4B0"/>
<path d="M77.7358 4.92673C80.754 3.89622 86.1429 3.259 91.5796 5.14752C104.55 9.65284 97.616 22.1511 96.9534 39.8907C96.2909 57.6304 113.684 59.4059 124.407 71.9104C135.13 84.4149 131.18 98.4094 131.18 98.4094L128.714 107.39L126.763 116.738" stroke="#4AA4B0" stroke-width="0.5"/>
<path d="M101.141 12.6244L99.4058 20.8362" stroke="#1F545B" stroke-width="0.6"/>
<path d="M103.491 4.61773C103.491 4.61773 99.6218 7.27043 98.8018 9.9951C98.6533 10.4887 98.5138 11.2842 98.5138 11.2842" stroke="#1F545B" stroke-width="0.6"/>
<path d="M96.5952 30.9122L99.6939 24.6038" stroke="#1F545B" stroke-width="0.6"/>
<path d="M103.232 5.00741C104.933 8.62879 105.116 10.8295 104.036 14.6822C103.042 18.2254 98.9568 22.7754 98.9568 22.7754" stroke="#1F545B" stroke-width="0.6"/>
<path d="M95.04 10.5151L95.0638 17.7171" stroke="#1F545B" stroke-width="0.6"/>
<path d="M95.1342 17.718C95.1342 17.718 98.1725 12.109 97.7243 8.35214C97.3744 5.41878 94.6301 1.36037 94.6301 1.36037C94.6301 1.36037 91.5572 5.38022 91.8008 8.25702C91.9125 9.57565 92.7941 11.5169 92.7941 11.5169" stroke="#1F545B" stroke-width="0.6"/>
<path d="M88.6091 16.0558C87.5762 12.8242 88.7476 7.42913 88.7476 7.42913C88.7476 7.42913 93.3192 11.235 94.489 14.5283C95.6859 17.8981 94.3431 23.609 94.3431 23.609C94.3431 23.609 89.715 19.5161 88.6091 16.0558Z" stroke="#1F545B" stroke-width="0.6"/>
<path d="M91.9551 15.98L94.4117 23.6103" stroke="#1F545B" stroke-width="0.6"/>
<path d="M98.7349 23.4853C98.6662 23.4193 103.564 17.9183 103.564 17.9183C103.564 17.9183 103.455 22.1547 102.342 24.5813C100.953 27.6099 96.5223 31.0406 96.5223 31.0406L96.2696 29.4146" stroke="#1F545B" stroke-width="0.6"/>
<path d="M97.4793 19.3128L96.2039 29.2838" stroke="#1F545B" stroke-width="0.6"/>
<path d="M95.1335 17.7829L98.3175 10.5027C98.3175 10.5027 99.7994 15.8311 99.5707 19.2815C99.297 23.4107 96.2712 29.4146 96.2712 29.4146L94.4126 23.6105" stroke="#1F545B" stroke-width="0.6"/>
<path d="M46.9489 12.3641L48.684 20.5759" stroke="#1F545B" stroke-width="0.6"/>
<path d="M44.599 4.35796C44.599 4.35796 48.468 7.01067 49.288 9.73533C49.4366 10.229 49.5761 11.0244 49.5761 11.0244" stroke="#1F545B" stroke-width="0.6"/>
<path d="M51.4947 30.6519L48.396 24.3435" stroke="#1F545B" stroke-width="0.6"/>
<path d="M44.8583 4.74764C43.1566 8.36903 42.9736 10.5697 44.0539 14.4224C45.0474 17.9656 49.133 22.5156 49.133 22.5156" stroke="#1F545B" stroke-width="0.6"/>
<path d="M53.0498 10.2554L53.026 17.4574" stroke="#1F545B" stroke-width="0.6"/>
<path d="M52.9556 17.4583C52.9556 17.4583 49.9174 11.8492 50.3655 8.09237C50.7154 5.15902 53.4597 1.1006 53.4597 1.1006C53.4597 1.1006 56.5327 5.12046 56.289 7.99725C56.1774 9.31588 55.2958 11.2572 55.2958 11.2572" stroke="#1F545B" stroke-width="0.6"/>
<path d="M59.4808 15.7966C60.5136 12.565 59.3422 7.16985 59.3422 7.16985C59.3422 7.16985 54.7706 10.9757 53.6009 14.269C52.404 17.6388 53.7467 23.3498 53.7467 23.3498C53.7467 23.3498 58.3748 19.2568 59.4808 15.7966Z" stroke="#1F545B" stroke-width="0.6"/>
<path d="M56.1348 15.7202L53.6781 23.3505" stroke="#1F545B" stroke-width="0.6"/>
<path d="M49.353 23.2255C49.4217 23.1595 44.5236 17.6586 44.5236 17.6586C44.5236 17.6586 44.6328 21.8949 45.7459 24.3215C47.1351 27.3502 51.5656 30.7809 51.5656 30.7809L51.8183 29.1548" stroke="#1F545B" stroke-width="0.6"/>
<path d="M50.6106 19.0531L51.886 29.024" stroke="#1F545B" stroke-width="0.6"/>
<path d="M52.9563 17.5231L49.7723 10.2429C49.7723 10.2429 48.2905 15.5713 48.5192 19.0217C48.7928 23.1509 51.8187 29.1548 51.8187 29.1548L53.6773 23.3507" stroke="#1F545B" stroke-width="0.6"/>
<path d="M1.26562 184.93C1.39453 184.742 1.54102 184.467 1.70508 184.104C1.86914 183.729 1.99805 183.26 2.0918 182.697C2.2207 181.877 2.36133 180.957 2.51367 179.938C2.67773 178.906 2.8418 177.828 3.00586 176.703C3.18164 175.578 3.35156 174.43 3.51562 173.258C3.69141 172.074 3.85547 170.914 4.00781 169.777C4.17188 168.629 4.32422 167.527 4.46484 166.473C4.61719 165.406 4.75195 164.434 4.86914 163.555C4.98633 162.676 5.08008 161.914 5.15039 161.27C5.23242 160.613 5.29102 160.121 5.32617 159.793H7.55859L18.6152 180.465L29.584 159.793H31.2539L34.1367 180.676C34.2188 181.332 34.3066 181.895 34.4004 182.363C34.4941 182.832 34.5879 183.236 34.6816 183.576C34.7754 183.904 34.8633 184.18 34.9453 184.402C35.0391 184.613 35.127 184.789 35.209 184.93V185H30.7793V184.93C30.8379 184.801 30.8906 184.59 30.9375 184.297C30.9961 184.004 31.0254 183.652 31.0254 183.242C31.0254 183.09 31.0195 182.938 31.0078 182.785C30.9961 182.621 30.9785 182.445 30.9551 182.258L28.7227 165.418L18.3516 184.93L17.1387 184.789L6.69727 165.242C6.28711 168.02 5.92969 170.586 5.625 172.941C5.49609 173.949 5.36719 174.957 5.23828 175.965C5.10938 176.961 4.99219 177.893 4.88672 178.76C4.79297 179.627 4.7168 180.395 4.6582 181.062C4.59961 181.719 4.57031 182.205 4.57031 182.521C4.57031 182.92 4.58203 183.271 4.60547 183.576C4.62891 183.881 4.65234 184.139 4.67578 184.35C4.71094 184.596 4.74609 184.812 4.78125 185H1.26562V184.93ZM39.6211 173.328C39.6211 172.273 39.6094 171.359 39.5859 170.586C39.5625 169.801 39.5273 169.127 39.4805 168.564C39.4453 167.99 39.3926 167.51 39.3223 167.123C39.2637 166.736 39.1934 166.42 39.1113 166.174V166.104H43.1895V166.174C43.1074 166.42 43.0312 166.736 42.9609 167.123C42.9023 167.51 42.8496 167.99 42.8027 168.564C42.7676 169.127 42.7383 169.801 42.7148 170.586C42.6914 171.359 42.6797 172.273 42.6797 173.328V177.758C42.6797 178.812 42.6914 179.732 42.7148 180.518C42.7383 181.303 42.7676 181.982 42.8027 182.557C42.8496 183.119 42.9023 183.594 42.9609 183.98C43.0312 184.367 43.1074 184.684 43.1895 184.93V185H39.1113V184.93C39.1934 184.684 39.2637 184.367 39.3223 183.98C39.3926 183.594 39.4453 183.119 39.4805 182.557C39.5273 181.982 39.5625 181.303 39.5859 180.518C39.6094 179.732 39.6211 178.812 39.6211 177.758V173.328ZM64.9688 185.246H64.2832L50.3086 171.5V177.758C50.3086 178.812 50.3145 179.732 50.3262 180.518C50.3379 181.303 50.3555 181.982 50.3789 182.557C50.4141 183.119 50.4551 183.594 50.502 183.98C50.5605 184.367 50.6309 184.684 50.7129 184.93V185H48.0762V184.93C48.1582 184.684 48.2285 184.367 48.2871 183.98C48.3457 183.594 48.3926 183.119 48.4277 182.557C48.4629 181.982 48.4863 181.303 48.498 180.518C48.5098 179.732 48.5156 178.812 48.5156 177.758V173.328C48.5156 172.273 48.5098 171.359 48.498 170.586C48.4863 169.801 48.4629 169.127 48.4277 168.564C48.3926 167.99 48.3457 167.51 48.2871 167.123C48.2285 166.736 48.1582 166.42 48.0762 166.174V166.104H49.166L63.1582 179.92V173.328C63.1582 172.273 63.1523 171.359 63.1406 170.586C63.1289 169.801 63.1055 169.127 63.0703 168.564C63.0469 167.99 63.0117 167.51 62.9648 167.123C62.918 166.736 62.8535 166.42 62.7715 166.174V166.104H65.3906V166.174C65.3086 166.42 65.2383 166.736 65.1797 167.123C65.1328 167.51 65.0918 167.99 65.0566 168.564C65.0215 169.127 64.998 169.801 64.9863 170.586C64.9746 171.359 64.9688 172.273 64.9688 173.328V185.246ZM70.0137 166.104C71.1621 166.104 72.3398 166.104 73.5469 166.104C74.7539 166.092 75.873 166.08 76.9043 166.068C77.9355 166.045 78.8203 166.021 79.5586 165.998C80.3086 165.975 80.8008 165.939 81.0352 165.893L80.3496 167.791C80.0332 167.709 79.6758 167.633 79.2773 167.562C78.9258 167.504 78.498 167.451 77.9941 167.404C77.502 167.346 76.9277 167.316 76.2715 167.316C76.0371 167.316 75.7676 167.328 75.4629 167.352C75.1582 167.363 74.8652 167.381 74.584 167.404C74.2559 167.428 73.9219 167.451 73.582 167.475V174.418C74.5312 174.406 75.3867 174.383 76.1484 174.348C76.9102 174.312 77.5605 174.266 78.0996 174.207C78.7324 174.16 79.2891 174.096 79.7695 174.014L79.3477 176.105C78.7031 176.023 78.0527 175.953 77.3965 175.895C76.834 175.836 76.2129 175.789 75.5332 175.754C74.8535 175.707 74.2031 175.684 73.582 175.684V183.664C74.6719 183.664 75.6738 183.623 76.5879 183.541C77.502 183.447 78.2988 183.348 78.9785 183.242C79.7754 183.113 80.4961 182.967 81.1406 182.803L80.7363 185.105C80.5605 185.094 80.2734 185.076 79.875 185.053C79.4883 185.041 79.0781 185.029 78.6445 185.018C78.2227 185.018 77.8242 185.012 77.4492 185C77.0742 185 76.8164 185 76.6758 185H70.0137V184.93C70.0957 184.684 70.166 184.367 70.2246 183.98C70.2949 183.594 70.3477 183.119 70.3828 182.557C70.4297 181.982 70.4648 181.303 70.4883 180.518C70.5117 179.732 70.5234 178.812 70.5234 177.758V173.328C70.5234 172.273 70.5117 171.359 70.4883 170.586C70.4648 169.801 70.4297 169.127 70.3828 168.564C70.3477 167.99 70.2949 167.51 70.2246 167.123C70.166 166.736 70.0957 166.42 70.0137 166.174V166.104ZM88.6289 175.824C88.8633 175.859 89.0977 175.889 89.332 175.912C89.5781 175.924 89.8125 175.93 90.0352 175.93C91.5 175.93 92.6074 175.537 93.3574 174.752C94.1191 173.967 94.5 172.789 94.5 171.219C94.5 169.93 94.1953 168.91 93.5859 168.16C92.9883 167.41 92.1035 167.035 90.9316 167.035C90.5566 167.035 90.2227 167.053 89.9297 167.088C89.6484 167.111 89.4082 167.141 89.209 167.176C88.9863 167.223 88.793 167.27 88.6289 167.316V175.824ZM91.3184 176.967C91.084 177.002 90.8496 177.025 90.6152 177.037C90.3926 177.037 90.1641 177.037 89.9297 177.037C89.7422 177.037 89.5371 177.031 89.3145 177.02C89.0918 177.008 88.8633 176.99 88.6289 176.967V177.828C88.6289 178.871 88.6406 179.785 88.6641 180.57C88.6875 181.344 88.7168 182.012 88.752 182.574C88.7988 183.137 88.8516 183.611 88.9102 183.998C88.9688 184.373 89.0391 184.684 89.1211 184.93V185H85.0605V184.93C85.1426 184.684 85.2129 184.367 85.2715 183.98C85.3418 183.594 85.3945 183.119 85.4297 182.557C85.4766 181.982 85.5117 181.303 85.5352 180.518C85.5586 179.732 85.5703 178.812 85.5703 177.758V173.328C85.5703 172.273 85.5586 171.359 85.5352 170.586C85.5117 169.801 85.4766 169.127 85.4297 168.564C85.3945 167.99 85.3418 167.51 85.2715 167.123C85.2129 166.736 85.1426 166.42 85.0605 166.174V166.104C85.248 166.115 85.4473 166.127 85.6582 166.139C85.834 166.15 86.0273 166.162 86.2383 166.174C86.4609 166.174 86.6836 166.174 86.9062 166.174C87.2812 166.174 87.8379 166.139 88.5762 166.068C89.3145 165.998 90.1816 165.963 91.1777 165.963C92.1855 165.963 93.0996 166.086 93.9199 166.332C94.752 166.578 95.4609 166.93 96.0469 167.387C96.6445 167.844 97.1016 168.4 97.418 169.057C97.7461 169.713 97.9102 170.445 97.9102 171.254C97.9102 171.887 97.8223 172.467 97.6465 172.994C97.4707 173.51 97.2246 173.979 96.9082 174.4C96.5918 174.811 96.2168 175.174 95.7832 175.49C95.3496 175.807 94.8691 176.082 94.3418 176.316L98.0156 181.502C98.332 181.924 98.6484 182.328 98.9648 182.715C99.293 183.102 99.6035 183.447 99.8965 183.752C100.189 184.057 100.465 184.314 100.723 184.525C100.98 184.725 101.197 184.859 101.373 184.93V185H96.7676C96.7676 184.895 96.6914 184.713 96.5391 184.455C96.3984 184.186 96.2285 183.91 96.0293 183.629C95.8418 183.336 95.6484 183.055 95.4492 182.785C95.2617 182.516 95.1211 182.316 95.0273 182.188L91.3184 176.967ZM104.625 166.104V166.174C104.602 166.232 104.584 166.326 104.572 166.455C104.561 166.584 104.555 166.695 104.555 166.789C104.555 167.164 104.607 167.586 104.713 168.055C104.83 168.512 105.041 169.086 105.346 169.777L110.021 180.359L114.732 169.918C114.838 169.695 114.943 169.461 115.049 169.215C115.154 168.957 115.254 168.693 115.348 168.424C115.441 168.154 115.518 167.885 115.576 167.615C115.635 167.334 115.664 167.059 115.664 166.789C115.664 166.637 115.652 166.508 115.629 166.402C115.605 166.285 115.582 166.209 115.559 166.174V166.104H118.881V166.174C118.658 166.408 118.371 166.824 118.02 167.422C117.668 168.008 117.305 168.758 116.93 169.672L109.916 185.246H108.791L102.322 170.568C102.088 170.029 101.836 169.514 101.566 169.021C101.309 168.518 101.062 168.072 100.828 167.686C100.605 167.287 100.406 166.959 100.23 166.701C100.055 166.432 99.9316 166.256 99.8613 166.174V166.104H104.625ZM131.449 179.059C131.133 179.059 130.734 179.059 130.254 179.059C129.785 179.059 129.27 179.059 128.707 179.059C128.145 179.059 127.564 179.059 126.967 179.059C126.369 179.059 125.801 179.064 125.262 179.076C124.723 179.076 124.23 179.082 123.785 179.094C123.34 179.094 122.994 179.094 122.748 179.094L122.098 180.465C121.816 181.027 121.576 181.52 121.377 181.941C121.178 182.352 121.014 182.715 120.885 183.031C120.756 183.348 120.662 183.623 120.604 183.857C120.545 184.08 120.516 184.291 120.516 184.49C120.516 184.619 120.521 184.719 120.533 184.789C120.545 184.848 120.562 184.895 120.586 184.93V185H117.492V184.93C117.574 184.848 117.703 184.672 117.879 184.402C118.055 184.121 118.254 183.781 118.477 183.383C118.711 182.984 118.957 182.533 119.215 182.029C119.484 181.525 119.748 181.004 120.006 180.465L127.178 165.664H128.496L135.527 180.465C135.797 181.027 136.066 181.566 136.336 182.082C136.617 182.598 136.875 183.061 137.109 183.471C137.344 183.869 137.549 184.203 137.725 184.473C137.9 184.73 138.018 184.883 138.076 184.93V185H133.576C133.6 184.906 133.611 184.824 133.611 184.754C133.611 184.672 133.611 184.584 133.611 184.49C133.611 184.232 133.553 183.922 133.436 183.559C133.33 183.195 133.195 182.826 133.031 182.451C132.879 182.064 132.715 181.695 132.539 181.344C132.375 180.992 132.24 180.699 132.135 180.465L131.449 179.059ZM123.434 177.688H124.506C124.998 177.688 125.52 177.688 126.07 177.688C126.633 177.676 127.195 177.67 127.758 177.67C128.32 177.67 128.865 177.67 129.393 177.67C129.92 177.658 130.395 177.652 130.816 177.652L127.178 169.883L123.434 177.688Z" fill="#1F545B"/>
</svg>
