<svg width="192" height="211" viewBox="0 0 192 211" fill="none" xmlns="http://www.w3.org/2000/svg">
<path d="M154.84 81.7109C154.84 81.7109 146.204 67.0856 137.714 59.145C134.001 55.6722 128.985 52.4491 126.122 48.2862C119.781 39.0675 128.456 27.7508 125.603 17.0173C124.648 13.4242 124.52 11.7227 124.52 11.7227" stroke="#1691A1" stroke-width="0.5"/>
<path d="M101.762 5.38433L98.5394 6.16414L92.8431 4.75073" stroke="#4AA4B0" stroke-width="0.5"/>
<path d="M100.74 7.87103L98.6837 8.50463L93.8189 7.04248" stroke="#4AA4B0" stroke-width="0.8"/>
<path d="M40.9868 80.0008C40.9868 80.0008 48.2428 67.183 56.2241 59.266C59.7147 55.8036 66.336 49.1889 69.0276 45.0385C74.9882 35.8472 66.3164 27.8325 68.9986 17.1309C69.8964 13.5485 69.7482 11.6509 69.7482 11.6509" stroke="#1691A1" stroke-width="0.5"/>
<path d="M93.5846 50.5889H100.777L99.9737 49.957H94.2818L93.5846 50.5889Z" stroke="#1F545B" stroke-width="2"/>
<path d="M99.668 54.8071C99.668 54.8071 98.2392 55.392 97.2798 55.392C96.3204 55.392 94.8916 54.8071 94.8916 54.8071" stroke="#1F545B" stroke-width="0.5"/>
<path d="M116.044 50.8772C115.802 50.953 105.838 66.1169 96.4694 65.5104C87.3388 64.9193 79.1982 50.7117 79.1982 50.7117" stroke="#45929C" stroke-width="0.7"/>
<path d="M110.371 57.7302C110.371 57.7302 108.014 67.8499 110.047 73.4794C114.192 84.9533 140.608 88.7278 140.608 88.7278" stroke="#45929C" stroke-width="0.7"/>
<path d="M84.0938 57.6321C84.0938 57.6321 86.4436 67.7517 84.4163 73.3812C80.2843 84.8552 53.9507 88.6297 53.9507 88.6297" stroke="#45929C" stroke-width="0.7"/>
<path d="M93.2336 4.84611C89.8274 3.6822 83.7505 2.96249 77.6147 5.09546C62.977 10.184 70.8022 24.3 71.55 44.3359C72.2977 64.3717 52.6632 66.3772 40.5614 80.5002C28.4597 94.6233 32.9182 110.429 32.9182 110.429L35.7013 120.572L37.4365 129.709" stroke="#4AA4B0" stroke-width="0.5"/>
<path d="M140.218 88.5325C146.742 98.8412 149.506 106.415 150.973 118.638C153.321 138.2 139.049 167.586 139.049 167.586" stroke="#4AA4B0" stroke-width="0.5"/>
<path d="M54.2487 88.3386C46.7601 98.9421 44.3305 106.562 42.6469 119.135C39.9524 139.256 56.5832 169.732 56.5832 169.732" stroke="#4AA4B0" stroke-width="0.5"/>
<path d="M100.642 42.1348L99.3189 43.6944H95.4334L94.1107 42.1348" stroke="#4AA4B0" stroke-width="0.6"/>
<path d="M99.668 40.7708L98.6932 36.9692" stroke="#4AA4B0" stroke-width="0.6"/>
<path d="M95.3789 40.7708L96.3537 36.9692" stroke="#4AA4B0" stroke-width="0.6"/>
<path d="M68.5991 170.78C68.5991 170.78 65.9482 166.836 64.8948 164.014C63.6741 160.745 63.3539 158.726 63.2014 155.24C63.1767 154.676 63.1859 154.152 63.2188 153.654M59.6029 143.611C59.6029 143.611 59.5486 139.406 60.0263 136.634C60.3664 134.661 59.9795 133.176 61.2963 131.665C62.1855 130.646 64.2598 129.868 64.2598 129.868C64.2598 129.868 64.0474 131.232 63.7306 131.983C62.7989 134.189 63.0664 135.406 63.2014 137.797C63.3798 140.957 64.1998 142.667 64.2598 145.831C64.3192 148.964 63.4018 150.891 63.2188 153.654M57.047 169.534L52.3001 158.306L49.3366 142.66C49.3366 142.66 48.4825 138.86 48.969 135.577M63.2188 153.654C63.2188 153.654 62.4451 156.761 61.6138 158.623C60.4326 161.269 57.592 164.86 57.592 164.86C57.592 164.86 59.2575 160.629 59.7087 157.777C60.0449 155.653 60.3794 154.401 60.0263 152.28C59.7303 150.502 58.4387 147.946 58.4387 147.946C58.4387 147.946 54.5822 140.253 54.4169 138.643C54.2515 137.033 54.1588 136.13 53.9935 134.52C53.9935 134.52 57.592 132.145 59.6029 130.478C61.6138 128.811 62.5664 128.494 63.7306 126.697C64.8948 124.9 64.0481 121.94 64.0481 121.94C64.0481 121.94 59.2854 127.543 57.592 128.494C56.988 128.833 55.8765 129.295 54.6565 129.868M54.6565 129.868C52.4556 130.902 49.9016 132.298 49.3366 133.991C49.1696 134.492 49.0505 135.027 48.969 135.577M54.6565 129.868C54.6565 129.868 58.7695 126.821 60.5554 124.16C61.6361 122.549 62.4455 121.63 62.778 119.72C62.9763 118.581 62.778 116.76 62.778 116.76L56.3219 125.111L50.0775 131.031L48.969 135.577" stroke="#1F545B" stroke-width="0.7"/>
<path d="M49.0212 135.752L49.6669 130.156L53.4334 125.528L57.3076 118.425L59.1371 112.937C59.1371 112.937 59.8764 114.06 60.1057 114.874C60.436 116.047 60.2911 116.79 60.1057 117.995C59.8528 119.638 59.364 120.501 58.599 121.977C57.9287 123.271 56.4639 124.905 56.4639 124.905" stroke="#1F545B" stroke-width="0.7"/>
<path d="M57.0952 132.845C57.0952 132.845 57.0356 135.555 57.3105 137.258C57.7658 140.079 58.646 141.524 59.7857 144.145C60.5501 145.903 61.3415 146.735 61.938 148.557C62.1949 149.342 62.4761 150.602 62.4761 150.602" stroke="#1F545B" stroke-width="0.7"/>
<path d="M126.612 170.923C126.612 170.923 129.307 166.908 130.378 164.036C131.62 160.707 131.945 158.652 132.1 155.103C132.125 154.53 132.116 153.996 132.083 153.489M135.759 143.266C135.759 143.266 135.814 138.984 135.329 136.163C134.983 134.154 135.376 132.642 134.037 131.105C133.133 130.067 131.024 129.275 131.024 129.275C131.024 129.275 131.24 130.664 131.562 131.428C132.51 133.674 132.238 134.913 132.1 137.347C131.919 140.563 131.085 142.304 131.024 145.525C130.964 148.715 131.896 150.676 132.083 153.489M138.767 168.017L143.287 157.686L146.198 142.297C146.198 142.297 147.067 138.428 146.572 135.087M132.083 153.489C132.083 153.489 132.869 156.651 133.715 158.547C134.916 161.241 137.804 164.896 137.804 164.896C137.804 164.896 136.11 160.589 135.652 157.686C135.31 155.524 134.97 154.249 135.329 152.09C135.63 150.28 136.943 147.678 136.943 147.678C136.943 147.678 140.864 139.847 141.032 138.208C141.201 136.568 141.295 135.65 141.463 134.01C141.463 134.01 137.804 131.593 135.759 129.896C133.715 128.199 132.746 127.876 131.562 126.047C130.378 124.217 131.239 121.204 131.239 121.204C131.239 121.204 136.082 126.908 137.804 127.876C138.418 128.222 139.548 128.692 140.789 129.275M140.789 129.275C143.027 130.328 145.624 131.749 146.198 133.472C146.368 133.982 146.489 134.527 146.572 135.087M140.789 129.275C140.789 129.275 136.607 126.173 134.791 123.464C133.692 121.825 132.869 120.888 132.531 118.944C132.329 117.785 132.531 115.931 132.531 115.931L139.095 124.433L145.445 130.459L146.572 135.087" stroke="#1F545B" stroke-width="0.7"/>
<path d="M146.521 134.923L145.875 129.327L142.109 124.7L138.234 117.597L136.405 112.108C136.405 112.108 135.666 113.231 135.436 114.045C135.106 115.219 135.251 115.962 135.436 117.166C135.689 118.81 136.178 119.672 136.943 121.148C137.613 122.442 138.772 124.054 138.772 124.054" stroke="#1F545B" stroke-width="0.7"/>
<path d="M138.449 132.017C138.449 132.017 138.508 134.726 138.233 136.429C137.778 139.251 136.898 140.696 135.758 143.317C134.994 145.075 134.202 145.907 133.606 147.729C133.349 148.514 133.068 149.774 133.068 149.774" stroke="#1F545B" stroke-width="0.7"/>
<mask id="path-22-inside-1_63_1333" fill="white">
<path d="M72.8158 115.448L76.5737 117.19V134.33L91.2388 146.52L73.274 137.996L72.8158 115.448Z"/>
</mask>
<path d="M76.5737 117.19L84.9829 99.0438L96.5737 104.415V117.19H76.5737ZM72.8158 115.448L52.8199 115.855L52.1691 83.8374L81.225 97.3023L72.8158 115.448ZM73.274 137.996L64.7004 156.065L53.5294 150.765L53.2782 138.402L73.274 137.996ZM91.2388 146.52L104.024 131.14L82.6652 164.589L91.2388 146.52ZM76.5737 134.33L63.7889 149.71L56.5737 143.712V134.33H76.5737ZM68.1645 135.336L64.4065 133.595L81.225 97.3023L84.9829 99.0438L68.1645 135.336ZM92.8116 115.042L93.2699 137.59L53.2782 138.402L52.8199 115.855L92.8116 115.042ZM81.8477 119.927L99.8124 128.451L82.6652 164.589L64.7004 156.065L81.8477 119.927ZM78.454 161.9L63.7889 149.71L89.3585 118.95L104.024 131.14L78.454 161.9ZM56.5737 134.33V117.19H96.5737V134.33H56.5737Z" fill="#4AA4B0" mask="url(#path-22-inside-1_63_1333)"/>
<mask id="path-24-inside-2_63_1333" fill="white">
<path d="M120.628 115.435L116.87 117.176V134.316L102.205 146.506L120.17 137.982L120.628 115.435Z"/>
</mask>
<path d="M116.87 117.176L108.461 99.0301L96.8702 104.401V117.176H116.87ZM120.628 115.435L140.624 115.841L141.275 83.8237L112.219 97.2886L120.628 115.435ZM120.17 137.982L128.743 156.052L139.914 150.751L140.166 138.389L120.17 137.982ZM102.205 146.506L89.4203 131.126L110.779 164.576L102.205 146.506ZM116.87 134.316L129.655 149.696L136.87 143.699V134.316H116.87ZM125.279 135.323L129.037 133.581L112.219 97.2886L108.461 99.0301L125.279 135.323ZM100.632 115.028L100.174 137.576L140.166 138.389L140.624 115.841L100.632 115.028ZM111.596 119.913L93.6315 128.437L110.779 164.576L128.743 156.052L111.596 119.913ZM114.99 161.887L129.655 149.696L104.085 118.936L89.4203 131.126L114.99 161.887ZM136.87 134.316V117.176H96.8702V134.316H136.87Z" fill="#4AA4B0" mask="url(#path-24-inside-2_63_1333)"/>
<mask id="path-26-inside-3_63_1333" fill="white">
<path d="M72.1734 139.188V122.873H68.6904L68.3238 147.712L91.0547 148.446L72.1734 139.188Z"/>
</mask>
<path d="M72.1734 122.873V102.873H92.1734V122.873H72.1734ZM72.1734 139.188L63.3689 157.146L52.1734 151.657V139.188H72.1734ZM91.0547 148.446L99.8592 130.488L90.4099 168.435L91.0547 148.446ZM68.3238 147.712L67.679 167.702L48.0359 167.068L48.326 147.417L68.3238 147.712ZM68.6904 122.873L48.6926 122.578L48.9835 102.873H68.6904V122.873ZM92.1734 122.873V139.188H52.1734V122.873H92.1734ZM80.9779 121.23L99.8592 130.488L82.2502 166.403L63.3689 157.146L80.9779 121.23ZM90.4099 168.435L67.679 167.702L68.9686 127.723L91.6995 128.456L90.4099 168.435ZM48.326 147.417L48.6926 122.578L88.6883 123.168L88.3216 148.007L48.326 147.417ZM68.6904 102.873H72.1734V142.873H68.6904V102.873Z" fill="#1F545B" mask="url(#path-26-inside-3_63_1333)"/>
<mask id="path-28-inside-4_63_1333" fill="white">
<path d="M121.944 138.639V122.324H125.427L125.794 147.163L103.063 147.896L121.944 138.639Z"/>
</mask>
<path d="M121.944 122.324V102.324H101.944V122.324H121.944ZM121.944 138.639L130.749 156.596L141.944 151.107V138.639H121.944ZM103.063 147.896L94.2585 129.938L103.708 167.886L103.063 147.896ZM125.794 147.163L126.439 167.152L146.082 166.519L145.792 146.868L125.794 147.163ZM125.427 122.324L145.425 122.029L145.134 102.324H125.427V122.324ZM101.944 122.324V138.639H141.944V122.324H101.944ZM113.14 120.681L94.2585 129.938L111.868 165.854L130.749 156.596L113.14 120.681ZM103.708 167.886L126.439 167.152L125.149 127.173L102.418 127.906L103.708 167.886ZM145.792 146.868L145.425 122.029L105.429 122.619L105.796 147.458L145.792 146.868ZM125.427 102.324H121.944V142.324H125.427V102.324Z" fill="#1F545B" mask="url(#path-28-inside-4_63_1333)"/>
<mask id="path-30-inside-5_63_1333" fill="white">
<path d="M114.807 133.321L115.541 111.049L97.0259 126.447V147.895L114.807 133.321Z"/>
</mask>
<path d="M115.541 111.049L102.752 95.6719L136.995 67.1923L135.53 111.707L115.541 111.049ZM114.807 133.321L134.796 133.98L134.498 143.042L127.485 148.79L114.807 133.321ZM97.0259 147.895L109.704 163.363L77.0259 190.146V147.895H97.0259ZM97.0259 126.447H77.0259V117.068L84.2372 111.07L97.0259 126.447ZM135.53 111.707L134.796 133.98L94.8181 132.663L95.5514 110.391L135.53 111.707ZM127.485 148.79L109.704 163.363L84.3481 132.426L102.129 117.853L127.485 148.79ZM77.0259 147.895V126.447H117.026V147.895H77.0259ZM84.2372 111.07L102.752 95.6719L128.329 126.426L109.815 141.824L84.2372 111.07Z" fill="#4AA4B0" mask="url(#path-30-inside-5_63_1333)"/>
<mask id="path-32-inside-6_63_1333" fill="white">
<path d="M78.0402 133.78L77.2153 111.141L95.73 126.539V147.803L78.0402 133.78Z"/>
</mask>
<path d="M77.2153 111.141L90.004 95.7637L55.5992 67.1498L57.2286 111.869L77.2153 111.141ZM78.0402 133.78L58.0535 134.508L58.3893 143.724L65.6158 149.453L78.0402 133.78ZM95.73 147.803L83.3055 163.476L115.73 189.18V147.803H95.73ZM95.73 126.539H115.73V117.16L108.519 111.162L95.73 126.539ZM57.2286 111.869L58.0535 134.508L98.027 133.052L97.2021 110.412L57.2286 111.869ZM65.6158 149.453L83.3055 163.476L108.154 132.131L90.4647 118.107L65.6158 149.453ZM115.73 147.803V126.539H75.73V147.803H115.73ZM108.519 111.162L90.004 95.7637L64.4266 126.518L82.9413 141.916L108.519 111.162Z" fill="#4AA4B0" mask="url(#path-32-inside-6_63_1333)"/>
<path d="M140.413 88.9635C140.413 88.9635 115.05 99.4685 97.9374 99.8301C80.2661 100.204 54.0487 88.6292 54.0487 88.6292" stroke="#4AA4B0" stroke-width="0.7"/>
<path d="M138.56 168.27L126.5 170.805H69.0102L56.2897 169.537" stroke="#4AA4B0" stroke-width="0.5"/>
<path d="M99.668 10.3257C99.668 10.3257 96.6499 9.57749 94.6803 9.57813C90.2342 9.57955 83.9568 13.3993 83.9568 13.3993L82.4874 21.6137C82.4874 21.6137 87.884 21.3766 90.7171 23.0258C92.6494 24.1507 93.4603 25.601 93.4603 25.601C93.4603 25.601 90.1311 24.0055 88.3895 23.7735C85.8957 23.4412 82.793 24.438 82.793 24.438C82.793 24.438 82.3413 26.3568 82.793 27.438C83.796 29.8392 87.4752 27.1793 89.3871 28.4253L92.2134 30.5946C92.2134 30.5946 89.381 30.2378 87.5583 30.2528C85.9191 30.2663 84.8427 29.8656 83.3749 30.5946C79.7353 32.4023 84.7917 37.0035 83.9568 40.9783C83.1187 44.9681 79.1979 51.1032 79.1979 51.1032" stroke="#45929C" stroke-width="0.7"/>
<path d="M99.5684 10.3074C99.5684 10.3074 101.144 10.1612 103.127 10.1619C107.604 10.1633 111.941 14.0421 111.941 14.0421L113.42 22.2073C113.42 22.2073 107.987 21.9716 105.134 23.611C103.189 24.7291 102.372 26.1708 102.372 26.1708C102.372 26.1708 105.724 24.5848 107.478 24.3542C109.989 24.0239 113.113 25.0148 113.113 25.0148C113.113 25.0148 113.567 26.9221 113.113 27.9968C112.103 30.3837 108.398 27.7396 106.474 28.9782L103.628 31.1345C103.628 31.1345 106.48 30.7799 108.315 30.7948C109.965 30.8082 111.049 30.4098 112.527 31.1345C116.191 32.9314 111.1 37.505 111.941 41.456C112.785 45.422 116.042 51.1996 116.042 51.1996" stroke="#45929C" stroke-width="0.7"/>
<path fill-rule="evenodd" clip-rule="evenodd" d="M94.2082 6.76838C94.2082 6.76838 94.2085 6.76849 94.044 7.15007C93.8794 7.53164 93.8796 7.53169 93.8796 7.53169L93.8767 7.53048L93.8655 7.52571C93.8551 7.52137 93.8392 7.51473 93.8179 7.50599C93.7753 7.48851 93.7112 7.46265 93.6271 7.43C93.4589 7.36469 93.211 7.27233 92.8962 7.16573C92.2663 6.95242 91.3705 6.6828 90.3108 6.45889C88.1836 6.00947 85.4324 5.75208 82.8494 6.47007C80.5937 7.0971 78.8998 8.14692 77.632 9.52702C76.3619 10.9096 75.5018 12.6434 74.9461 14.6627C73.8306 18.7165 73.9586 23.854 74.4045 29.4369C74.5397 31.1288 74.7041 32.8617 74.8703 34.6136C75.2497 38.6118 75.6384 42.7084 75.7099 46.641C75.8128 52.3011 75.2634 57.7039 73.0505 62.1016C69.0903 69.9716 63.2675 72.9769 57.5886 75.9078L57.4103 75.9999C51.6813 78.9573 46.1171 81.8907 42.4631 89.6814C40.0411 94.8452 38.6636 98.682 37.8774 102.643C37.0904 106.608 36.892 110.716 36.8494 116.433C36.7515 129.582 38.7356 137.349 44.3743 149.244C46.1801 153.054 49.1553 157.579 51.6901 161.165C52.9555 162.955 54.1075 164.505 54.943 165.608C55.3607 166.16 55.6992 166.599 55.9331 166.9C56.0501 167.051 56.1409 167.167 56.2023 167.245C56.2331 167.285 56.2565 167.314 56.2721 167.334L56.2952 167.363C56.2952 167.363 56.2956 167.364 55.9697 167.622C55.6438 167.88 55.6437 167.88 55.6437 167.88L55.6192 167.849C55.6032 167.828 55.5793 167.798 55.5482 167.758C55.4859 167.679 55.3942 167.562 55.2764 167.41C55.0407 167.106 54.7002 166.664 54.2803 166.11C53.4406 165.001 52.283 163.443 51.0112 161.644C48.4714 158.052 45.4612 153.478 43.6231 149.6C37.937 137.605 35.9191 129.715 36.0181 116.427C36.0608 110.701 36.2588 106.527 37.062 102.481C37.866 98.4307 39.2723 94.5269 41.7104 89.3287C45.4923 81.2652 51.2884 78.2249 57.0289 75.2615L57.168 75.1897C62.855 72.2543 68.4693 69.3563 72.3078 61.7282C74.4288 57.5131 74.9808 52.2746 74.8787 46.6561C74.8078 42.7562 74.4241 38.713 74.0461 34.73C73.8791 32.9701 73.7132 31.2219 73.5759 29.503C73.1301 23.9235 72.9861 18.6523 74.1446 14.4423C74.7259 12.3298 75.6391 10.4679 77.0197 8.96493C78.4026 7.45947 80.2365 6.33383 82.6267 5.66941C85.3924 4.90063 88.294 5.18339 90.4827 5.64583C91.5808 5.87785 92.5087 6.15709 93.1629 6.37864C93.4902 6.48948 93.7496 6.58605 93.928 6.65533C94.0173 6.68997 94.0863 6.71781 94.1336 6.7372C94.1572 6.7469 94.1754 6.7545 94.188 6.75978L94.2026 6.76594L94.2082 6.76838Z" fill="#4AA4B0"/>
<path fill-rule="evenodd" clip-rule="evenodd" d="M100.462 7.54963C100.462 7.54963 100.477 7.49139 100.641 7.87296C100.806 8.25454 100.742 8.28724 100.742 8.28724L100.791 8.31277L100.793 8.31173L100.805 8.30696C100.815 8.30262 100.831 8.29598 100.852 8.28724C100.895 8.26976 100.959 8.2439 101.043 8.21125C101.211 8.14594 101.459 8.05358 101.774 7.94698C102.403 7.73367 103.299 7.46405 104.358 7.24014C106.485 6.79072 109.235 6.53333 111.818 7.25132C114.073 7.87835 115.766 8.92817 117.034 10.3083C118.303 11.6909 119.163 13.4247 119.719 15.444C120.834 19.4978 120.706 24.6353 120.26 30.2181C120.125 31.9101 119.961 33.643 119.795 35.3948C119.415 39.393 119.027 43.4897 118.955 47.4222C118.852 53.0824 119.402 58.4852 121.614 62.8829C125.573 70.7528 131.394 73.7581 137.072 76.6891L137.25 76.7811C142.977 79.7386 148.54 82.672 152.193 90.4627C154.614 95.6265 155.991 99.4633 156.777 103.424C157.564 107.389 157.763 111.497 157.805 117.215C157.903 130.363 155.919 138.13 150.282 150.026C148.477 153.835 145.503 158.36 142.968 161.946C141.703 163.736 140.552 165.286 139.716 166.389C139.299 166.941 138.96 167.38 138.727 167.682C138.61 167.832 138.519 167.948 138.457 168.027C138.427 168.066 138.403 168.096 138.388 168.115L138.365 168.145C138.365 168.145 138.364 168.145 138.69 168.403C139.016 168.661 139.016 168.661 139.016 168.661L139.04 168.63C139.056 168.609 139.08 168.579 139.111 168.539C139.174 168.46 139.265 168.343 139.383 168.191C139.619 167.887 139.959 167.445 140.379 166.891C141.218 165.783 142.376 164.225 143.647 162.426C146.186 158.833 149.196 154.259 151.033 150.381C156.718 138.387 158.735 130.496 158.636 117.209C158.594 111.482 158.396 107.308 157.593 103.262C156.789 99.212 155.383 95.3082 152.945 90.1099C149.165 82.0465 143.37 79.0061 137.631 76.0427L137.492 75.9709C131.807 73.0355 126.194 70.1375 122.356 62.5094C120.236 58.2944 119.684 53.0559 119.786 47.4373C119.857 43.5375 120.241 39.4943 120.619 35.5112C120.786 33.7513 120.951 32.0031 121.089 30.2843C121.534 24.7047 121.678 19.4336 120.52 15.2236C119.939 13.111 119.026 11.2491 117.646 9.74618C116.263 8.24072 114.43 7.11508 112.04 6.45066C109.275 5.68188 106.375 5.96464 104.186 6.42708C103.089 6.6591 102.161 6.93834 101.507 7.15989C101.18 7.27073 100.92 7.3673 100.742 7.43658C100.653 7.47122 100.584 7.49906 100.537 7.51845C100.513 7.52815 100.495 7.53575 100.482 7.54103L100.468 7.54719L100.464 7.54893L100.462 7.54963Z" fill="#4AA4B0"/>
<path d="M101.617 5.43118C105.023 4.26817 111.105 3.54902 117.241 5.68036C131.879 10.765 124.053 24.8702 123.306 44.8907C122.558 64.9113 142.187 66.9152 154.289 81.0274C166.391 95.1397 161.932 110.934 161.932 110.934L159.149 121.068L156.948 131.619" stroke="#4AA4B0" stroke-width="0.5"/>
<path d="M128.033 14.1191L126.075 23.3868" stroke="#1F545B" stroke-width="0.8"/>
<path d="M130.685 5.0831C130.685 5.0831 126.319 8.07688 125.393 11.1519C125.226 11.709 125.068 12.6067 125.068 12.6067" stroke="#1F545B" stroke-width="0.8"/>
<path d="M122.903 34.7588L126.4 27.6393" stroke="#1F545B" stroke-width="0.8"/>
<path d="M130.392 5.52248C132.313 9.60949 132.519 12.0931 131.3 16.4412C130.179 20.44 125.568 25.575 125.568 25.575" stroke="#1F545B" stroke-width="0.8"/>
<path d="M121.148 11.7393L121.175 19.8673" stroke="#1F545B" stroke-width="0.8"/>
<path d="M121.254 19.8679C121.254 19.8679 124.683 13.5376 124.177 9.29779C123.782 5.98727 120.685 1.40703 120.685 1.40703C120.685 1.40703 117.217 5.94375 117.492 9.19044C117.618 10.6786 118.613 12.8695 118.613 12.8695" stroke="#1F545B" stroke-width="0.8"/>
<path d="M113.889 17.9922C112.723 14.3451 114.045 8.25629 114.045 8.25629C114.045 8.25629 119.205 12.5515 120.525 16.2682C121.876 20.0714 120.36 26.5166 120.36 26.5166C120.36 26.5166 115.137 21.8974 113.889 17.9922Z" stroke="#1F545B" stroke-width="0.8"/>
<path d="M117.666 17.905L120.438 26.5164" stroke="#1F545B" stroke-width="0.8"/>
<path d="M125.318 26.3766C125.241 26.3022 130.769 20.0939 130.769 20.0939C130.769 20.0939 130.646 24.8749 129.389 27.6136C127.821 31.0316 122.821 34.9034 122.821 34.9034L122.536 33.0683" stroke="#1F545B" stroke-width="0.8"/>
<path d="M123.9 21.6672L122.461 32.9201" stroke="#1F545B" stroke-width="0.8"/>
<path d="M121.252 19.9407L124.846 11.7244C124.846 11.7244 126.518 17.738 126.26 21.632C125.951 26.2921 122.536 33.0679 122.536 33.0679L120.439 26.5176" stroke="#1F545B" stroke-width="0.8"/>
<path d="M66.8722 13.8259L68.8304 23.0936" stroke="#1F545B" stroke-width="0.8"/>
<path d="M64.2201 4.78989C64.2201 4.78989 68.5866 7.78367 69.512 10.8587C69.6796 11.4158 69.8371 12.3135 69.8371 12.3135" stroke="#1F545B" stroke-width="0.8"/>
<path d="M72.0024 34.4656L68.5053 27.3461" stroke="#1F545B" stroke-width="0.8"/>
<path d="M64.5129 5.22926C62.5924 9.31628 62.3859 11.7999 63.6051 16.148C64.7264 20.1468 69.3373 25.2818 69.3373 25.2818" stroke="#1F545B" stroke-width="0.8"/>
<path d="M73.7573 11.446L73.7305 19.574" stroke="#1F545B" stroke-width="0.8"/>
<path d="M73.6511 19.5747C73.6511 19.5747 70.2222 13.2444 70.728 9.00458C71.1229 5.69406 74.2201 1.11382 74.2201 1.11382C74.2201 1.11382 77.6881 5.65054 77.4132 8.89722C77.2871 10.3854 76.2922 12.5763 76.2922 12.5763" stroke="#1F545B" stroke-width="0.8"/>
<path d="M81.0162 17.699C82.1818 14.0519 80.8599 7.96308 80.8599 7.96308C80.8599 7.96308 75.7004 12.2583 74.3803 15.975C73.0295 19.7781 74.5449 26.2234 74.5449 26.2234C74.5449 26.2234 79.7681 21.6042 81.0162 17.699Z" stroke="#1F545B" stroke-width="0.8"/>
<path d="M77.2393 17.6118L74.4668 26.2232" stroke="#1F545B" stroke-width="0.8"/>
<path d="M69.5859 26.0834C69.6634 26.009 64.1355 19.8007 64.1355 19.8007C64.1355 19.8007 64.2588 24.5817 65.515 27.3203C67.0828 30.7384 72.0829 34.6102 72.0829 34.6102L72.3681 32.7751" stroke="#1F545B" stroke-width="0.8"/>
<path d="M71.0048 21.374L72.4442 32.6269" stroke="#1F545B" stroke-width="0.8"/>
<path d="M73.653 19.6475L70.0596 11.4312C70.0596 11.4312 68.3873 17.4448 68.6453 21.3388C68.9542 25.9989 72.3691 32.7747 72.3691 32.7747L74.4667 26.2243" stroke="#1F545B" stroke-width="0.8"/>
<path d="M1.6875 209.906C1.85938 209.656 2.05469 209.289 2.27344 208.805C2.49219 208.305 2.66406 207.68 2.78906 206.93C2.96094 205.836 3.14844 204.609 3.35156 203.25C3.57031 201.875 3.78906 200.438 4.00781 198.938C4.24219 197.438 4.46875 195.906 4.6875 194.344C4.92188 192.766 5.14062 191.219 5.34375 189.703C5.5625 188.172 5.76562 186.703 5.95312 185.297C6.15625 183.875 6.33594 182.578 6.49219 181.406C6.64844 180.234 6.77344 179.219 6.86719 178.359C6.97656 177.484 7.05469 176.828 7.10156 176.391H10.0781L24.8203 203.953L39.4453 176.391H41.6719L45.5156 204.234C45.625 205.109 45.7422 205.859 45.8672 206.484C45.9922 207.109 46.1172 207.648 46.2422 208.102C46.3672 208.539 46.4844 208.906 46.5938 209.203C46.7188 209.484 46.8359 209.719 46.9453 209.906V210H41.0391V209.906C41.1172 209.734 41.1875 209.453 41.25 209.062C41.3281 208.672 41.3672 208.203 41.3672 207.656C41.3672 207.453 41.3594 207.25 41.3438 207.047C41.3281 206.828 41.3047 206.594 41.2734 206.344L38.2969 183.891L24.4688 209.906L22.8516 209.719L8.92969 183.656C8.38281 187.359 7.90625 190.781 7.5 193.922C7.32812 195.266 7.15625 196.609 6.98438 197.953C6.8125 199.281 6.65625 200.523 6.51562 201.68C6.39062 202.836 6.28906 203.859 6.21094 204.75C6.13281 205.625 6.09375 206.273 6.09375 206.695C6.09375 207.227 6.10938 207.695 6.14062 208.102C6.17188 208.508 6.20312 208.852 6.23438 209.133C6.28125 209.461 6.32812 209.75 6.375 210H1.6875V209.906ZM52.8281 194.438C52.8281 193.031 52.8125 191.812 52.7812 190.781C52.75 189.734 52.7031 188.836 52.6406 188.086C52.5938 187.32 52.5234 186.68 52.4297 186.164C52.3516 185.648 52.2578 185.227 52.1484 184.898V184.805H57.5859V184.898C57.4766 185.227 57.375 185.648 57.2812 186.164C57.2031 186.68 57.1328 187.32 57.0703 188.086C57.0234 188.836 56.9844 189.734 56.9531 190.781C56.9219 191.812 56.9062 193.031 56.9062 194.438V200.344C56.9062 201.75 56.9219 202.977 56.9531 204.023C56.9844 205.07 57.0234 205.977 57.0703 206.742C57.1328 207.492 57.2031 208.125 57.2812 208.641C57.375 209.156 57.4766 209.578 57.5859 209.906V210H52.1484V209.906C52.2578 209.578 52.3516 209.156 52.4297 208.641C52.5234 208.125 52.5938 207.492 52.6406 206.742C52.7031 205.977 52.75 205.07 52.7812 204.023C52.8125 202.977 52.8281 201.75 52.8281 200.344V194.438ZM86.625 210.328H85.7109L67.0781 192V200.344C67.0781 201.75 67.0859 202.977 67.1016 204.023C67.1172 205.07 67.1406 205.977 67.1719 206.742C67.2188 207.492 67.2734 208.125 67.3359 208.641C67.4141 209.156 67.5078 209.578 67.6172 209.906V210H64.1016V209.906C64.2109 209.578 64.3047 209.156 64.3828 208.641C64.4609 208.125 64.5234 207.492 64.5703 206.742C64.6172 205.977 64.6484 205.07 64.6641 204.023C64.6797 202.977 64.6875 201.75 64.6875 200.344V194.438C64.6875 193.031 64.6797 191.812 64.6641 190.781C64.6484 189.734 64.6172 188.836 64.5703 188.086C64.5234 187.32 64.4609 186.68 64.3828 186.164C64.3047 185.648 64.2109 185.227 64.1016 184.898V184.805H65.5547L84.2109 203.227V194.438C84.2109 193.031 84.2031 191.812 84.1875 190.781C84.1719 189.734 84.1406 188.836 84.0938 188.086C84.0625 187.32 84.0156 186.68 83.9531 186.164C83.8906 185.648 83.8047 185.227 83.6953 184.898V184.805H87.1875V184.898C87.0781 185.227 86.9844 185.648 86.9062 186.164C86.8438 186.68 86.7891 187.32 86.7422 188.086C86.6953 188.836 86.6641 189.734 86.6484 190.781C86.6328 191.812 86.625 193.031 86.625 194.438V210.328ZM93.3516 184.805C94.8828 184.805 96.4531 184.805 98.0625 184.805C99.6719 184.789 101.164 184.773 102.539 184.758C103.914 184.727 105.094 184.695 106.078 184.664C107.078 184.633 107.734 184.586 108.047 184.523L107.133 187.055C106.711 186.945 106.234 186.844 105.703 186.75C105.234 186.672 104.664 186.602 103.992 186.539C103.336 186.461 102.57 186.422 101.695 186.422C101.383 186.422 101.023 186.438 100.617 186.469C100.211 186.484 99.8203 186.508 99.4453 186.539C99.0078 186.57 98.5625 186.602 98.1094 186.633V195.891C99.375 195.875 100.516 195.844 101.531 195.797C102.547 195.75 103.414 195.688 104.133 195.609C104.977 195.547 105.719 195.461 106.359 195.352L105.797 198.141C104.938 198.031 104.07 197.938 103.195 197.859C102.445 197.781 101.617 197.719 100.711 197.672C99.8047 197.609 98.9375 197.578 98.1094 197.578V208.219C99.5625 208.219 100.898 208.164 102.117 208.055C103.336 207.93 104.398 207.797 105.305 207.656C106.367 207.484 107.328 207.289 108.188 207.07L107.648 210.141C107.414 210.125 107.031 210.102 106.5 210.07C105.984 210.055 105.438 210.039 104.859 210.023C104.297 210.023 103.766 210.016 103.266 210C102.766 210 102.422 210 102.234 210H93.3516V209.906C93.4609 209.578 93.5547 209.156 93.6328 208.641C93.7266 208.125 93.7969 207.492 93.8438 206.742C93.9062 205.977 93.9531 205.07 93.9844 204.023C94.0156 202.977 94.0312 201.75 94.0312 200.344V194.438C94.0312 193.031 94.0156 191.812 93.9844 190.781C93.9531 189.734 93.9062 188.836 93.8438 188.086C93.7969 187.32 93.7266 186.68 93.6328 186.164C93.5547 185.648 93.4609 185.227 93.3516 184.898V184.805ZM118.172 197.766C118.484 197.812 118.797 197.852 119.109 197.883C119.438 197.898 119.75 197.906 120.047 197.906C122 197.906 123.477 197.383 124.477 196.336C125.492 195.289 126 193.719 126 191.625C126 189.906 125.594 188.547 124.781 187.547C123.984 186.547 122.805 186.047 121.242 186.047C120.742 186.047 120.297 186.07 119.906 186.117C119.531 186.148 119.211 186.188 118.945 186.234C118.648 186.297 118.391 186.359 118.172 186.422V197.766ZM121.758 199.289C121.445 199.336 121.133 199.367 120.82 199.383C120.523 199.383 120.219 199.383 119.906 199.383C119.656 199.383 119.383 199.375 119.086 199.359C118.789 199.344 118.484 199.32 118.172 199.289V200.438C118.172 201.828 118.188 203.047 118.219 204.094C118.25 205.125 118.289 206.016 118.336 206.766C118.398 207.516 118.469 208.148 118.547 208.664C118.625 209.164 118.719 209.578 118.828 209.906V210H113.414V209.906C113.523 209.578 113.617 209.156 113.695 208.641C113.789 208.125 113.859 207.492 113.906 206.742C113.969 205.977 114.016 205.07 114.047 204.023C114.078 202.977 114.094 201.75 114.094 200.344V194.438C114.094 193.031 114.078 191.812 114.047 190.781C114.016 189.734 113.969 188.836 113.906 188.086C113.859 187.32 113.789 186.68 113.695 186.164C113.617 185.648 113.523 185.227 113.414 184.898V184.805C113.664 184.82 113.93 184.836 114.211 184.852C114.445 184.867 114.703 184.883 114.984 184.898C115.281 184.898 115.578 184.898 115.875 184.898C116.375 184.898 117.117 184.852 118.102 184.758C119.086 184.664 120.242 184.617 121.57 184.617C122.914 184.617 124.133 184.781 125.227 185.109C126.336 185.438 127.281 185.906 128.062 186.516C128.859 187.125 129.469 187.867 129.891 188.742C130.328 189.617 130.547 190.594 130.547 191.672C130.547 192.516 130.43 193.289 130.195 193.992C129.961 194.68 129.633 195.305 129.211 195.867C128.789 196.414 128.289 196.898 127.711 197.32C127.133 197.742 126.492 198.109 125.789 198.422L130.688 205.336C131.109 205.898 131.531 206.438 131.953 206.953C132.391 207.469 132.805 207.93 133.195 208.336C133.586 208.742 133.953 209.086 134.297 209.367C134.641 209.633 134.93 209.812 135.164 209.906V210H129.023C129.023 209.859 128.922 209.617 128.719 209.273C128.531 208.914 128.305 208.547 128.039 208.172C127.789 207.781 127.531 207.406 127.266 207.047C127.016 206.688 126.828 206.422 126.703 206.25L121.758 199.289ZM139.5 184.805V184.898C139.469 184.977 139.445 185.102 139.43 185.273C139.414 185.445 139.406 185.594 139.406 185.719C139.406 186.219 139.477 186.781 139.617 187.406C139.773 188.016 140.055 188.781 140.461 189.703L146.695 203.812L152.977 189.891C153.117 189.594 153.258 189.281 153.398 188.953C153.539 188.609 153.672 188.258 153.797 187.898C153.922 187.539 154.023 187.18 154.102 186.82C154.18 186.445 154.219 186.078 154.219 185.719C154.219 185.516 154.203 185.344 154.172 185.203C154.141 185.047 154.109 184.945 154.078 184.898V184.805H158.508V184.898C158.211 185.211 157.828 185.766 157.359 186.562C156.891 187.344 156.406 188.344 155.906 189.562L146.555 210.328H145.055L136.43 190.758C136.117 190.039 135.781 189.352 135.422 188.695C135.078 188.023 134.75 187.43 134.438 186.914C134.141 186.383 133.875 185.945 133.641 185.602C133.406 185.242 133.242 185.008 133.148 184.898V184.805H139.5ZM175.266 202.078C174.844 202.078 174.312 202.078 173.672 202.078C173.047 202.078 172.359 202.078 171.609 202.078C170.859 202.078 170.086 202.078 169.289 202.078C168.492 202.078 167.734 202.086 167.016 202.102C166.297 202.102 165.641 202.109 165.047 202.125C164.453 202.125 163.992 202.125 163.664 202.125L162.797 203.953C162.422 204.703 162.102 205.359 161.836 205.922C161.57 206.469 161.352 206.953 161.18 207.375C161.008 207.797 160.883 208.164 160.805 208.477C160.727 208.773 160.688 209.055 160.688 209.32C160.688 209.492 160.695 209.625 160.711 209.719C160.727 209.797 160.75 209.859 160.781 209.906V210H156.656V209.906C156.766 209.797 156.938 209.562 157.172 209.203C157.406 208.828 157.672 208.375 157.969 207.844C158.281 207.312 158.609 206.711 158.953 206.039C159.312 205.367 159.664 204.672 160.008 203.953L169.57 184.219H171.328L180.703 203.953C181.062 204.703 181.422 205.422 181.781 206.109C182.156 206.797 182.5 207.414 182.812 207.961C183.125 208.492 183.398 208.938 183.633 209.297C183.867 209.641 184.023 209.844 184.102 209.906V210H178.102C178.133 209.875 178.148 209.766 178.148 209.672C178.148 209.562 178.148 209.445 178.148 209.32C178.148 208.977 178.07 208.562 177.914 208.078C177.773 207.594 177.594 207.102 177.375 206.602C177.172 206.086 176.953 205.594 176.719 205.125C176.5 204.656 176.32 204.266 176.18 203.953L175.266 202.078ZM164.578 200.25H166.008C166.664 200.25 167.359 200.25 168.094 200.25C168.844 200.234 169.594 200.227 170.344 200.227C171.094 200.227 171.82 200.227 172.523 200.227C173.227 200.211 173.859 200.203 174.422 200.203L169.57 189.844L164.578 200.25Z" fill="#1F545B"/>
</svg>
