<svg width="65" height="79" viewBox="0 0 65 79" fill="none" xmlns="http://www.w3.org/2000/svg">
<path d="M50.7097 27.4437C50.7097 27.4437 47.9256 22.6521 45.1885 20.0506C43.9914 18.9128 42.3742 17.8568 41.4512 16.493C39.407 13.4727 42.2039 9.76509 41.284 6.24855C40.9761 5.07137 40.9349 4.51392 40.9349 4.51392" stroke="#1691A1" stroke-width="0.3"/>
<path d="M33.598 2.43805L32.559 2.69353L30.7225 2.23047" stroke="#4AA4B0" stroke-width="0.3"/>
<path d="M33.2684 3.25192L32.6056 3.4595L31.0372 2.98047" stroke="#4AA4B0" stroke-width="0.3"/>
<path d="M14.0043 26.8832C14.0043 26.8832 16.3436 22.6838 18.9167 20.09C20.042 18.9557 22.1767 16.7886 23.0445 15.4288C24.9661 12.4175 22.1704 9.79168 23.0351 6.28561C23.3246 5.11193 23.2768 4.49023 23.2768 4.49023" stroke="#1691A1" stroke-width="0.3"/>
<mask id="path-5-inside-1_63_118" fill="white">
<path d="M33.1332 16.7129L34.2113 17.5752H30.1259L31.0622 16.7129H33.1332Z"/>
</mask>
<path d="M34.2113 17.5752L35.4605 16.0133L39.9139 19.5752H34.2113V17.5752ZM33.1332 16.7129V14.7129H33.8346L34.3824 15.151L33.1332 16.7129ZM31.0622 16.7129L29.7073 15.2418L30.2815 14.7129H31.0622V16.7129ZM30.1259 17.5752V19.5752H25.0021L28.771 16.104L30.1259 17.5752ZM32.9621 19.137L31.884 18.2748L34.3824 15.151L35.4605 16.0133L32.9621 19.137ZM33.1332 18.7129H31.0622V14.7129H33.1332V18.7129ZM32.4171 18.184L31.4808 19.0463L28.771 16.104L29.7073 15.2418L32.4171 18.184ZM30.1259 15.5752H34.2113V19.5752H30.1259V15.5752Z" fill="#1F545B" mask="url(#path-5-inside-1_63_118)"/>
<path d="M32.9227 18.6289C32.9227 18.6289 32.4621 18.8205 32.1528 18.8205C31.8435 18.8205 31.3829 18.6289 31.3829 18.6289" stroke="#1F545B" stroke-width="0.1"/>
<path d="M38.2025 17.3413C38.1242 17.3662 34.9119 22.3342 31.8916 22.1355C28.948 21.9418 26.3235 17.2871 26.3235 17.2871" stroke="#45929C" stroke-width="0.2"/>
<path d="M36.3734 19.5876C36.3734 19.5876 35.6135 22.9031 36.2692 24.7474C37.6055 28.5066 46.1217 29.7432 46.1217 29.7432" stroke="#45929C" stroke-width="0.2"/>
<path d="M27.9018 19.5547C27.9018 19.5547 28.6594 22.8701 28.0058 24.7145C26.6736 28.4736 18.1838 29.7102 18.1838 29.7102" stroke="#45929C" stroke-width="0.2"/>
<path d="M30.8485 2.26076C29.7503 1.87944 27.7912 1.64364 25.8131 2.34245C21.0939 4.00956 23.6167 8.63429 23.8578 15.1985C24.0989 21.7627 17.7688 22.4197 13.8673 27.0468C9.96572 31.6738 11.4031 36.8522 11.4031 36.8522L12.3004 40.1752L12.8598 43.1688" stroke="#4AA4B0" stroke-width="0.3"/>
<path d="M45.9957 29.6797C48.099 33.057 48.9903 35.5385 49.4632 39.543C50.22 45.9519 45.619 55.5794 45.619 55.5794" stroke="#4AA4B0" stroke-width="0.5"/>
<path d="M18.2798 29.6152C15.8655 33.0892 15.0822 35.5856 14.5394 39.7047C13.6707 46.2968 19.0324 56.2814 19.0324 56.2814" stroke="#4AA4B0" stroke-width="0.5"/>
<path d="M33.2367 14.4785L32.8103 14.9895H31.5576L31.1312 14.4785" stroke="#4AA4B0" stroke-width="0.1"/>
<path d="M32.9227 14.0306L32.6085 12.7852" stroke="#4AA4B0" stroke-width="0.1"/>
<path d="M31.5399 14.0306L31.8542 12.7852" stroke="#4AA4B0" stroke-width="0.1"/>
<path d="M22.9067 56.6245C22.9067 56.6245 22.0521 55.3323 21.7125 54.4078C21.3189 53.3366 21.2157 52.6753 21.1665 51.5331C21.1586 51.3485 21.1615 51.1766 21.1722 51.0136M20.0064 47.7233C20.0064 47.7233 19.9889 46.3454 20.1429 45.4374C20.2526 44.7908 20.1278 44.3043 20.5524 43.8095C20.839 43.4754 21.5078 43.2208 21.5078 43.2208C21.5078 43.2208 21.4393 43.6677 21.3371 43.9135C21.0368 44.6363 21.123 45.0351 21.1665 45.8184C21.2241 46.8535 21.4884 47.414 21.5078 48.4506C21.5269 49.477 21.2311 50.1084 21.1722 51.0136M19.1824 56.216L17.652 52.5375L16.6966 47.4116C16.6966 47.4116 16.4213 46.1665 16.5781 45.091M21.1722 51.0136C21.1722 51.0136 20.9227 52.0314 20.6547 52.6414C20.2739 53.5084 19.3581 54.6849 19.3581 54.6849C19.3581 54.6849 19.895 53.2985 20.0405 52.3644C20.1489 51.6685 20.2567 51.2583 20.1429 50.5634C20.0475 49.9808 19.6311 49.1433 19.6311 49.1433C19.6311 49.1433 18.3878 46.623 18.3345 46.0954C18.2811 45.5679 18.2513 45.2722 18.198 44.7447C18.198 44.7447 19.3581 43.9666 20.0064 43.4205C20.6547 42.8744 20.9618 42.7705 21.3371 42.1817C21.7125 41.5929 21.4395 40.6231 21.4395 40.6231C21.4395 40.6231 19.904 42.4588 19.3581 42.7705C19.1634 42.8817 18.805 43.033 18.4117 43.2208M18.4117 43.2208C17.7022 43.5595 16.8787 44.0169 16.6966 44.5715C16.6428 44.7355 16.6044 44.9109 16.5781 45.091M18.4117 43.2208C18.4117 43.2208 19.7377 42.2224 20.3135 41.3505C20.6619 40.8229 20.9228 40.5215 21.0301 39.8958C21.094 39.5227 21.0301 38.926 21.0301 38.926L18.9486 41.6622L16.9355 43.6017L16.5781 45.091" stroke="#1F545B" stroke-width="0.1"/>
<path d="M16.5953 45.1484L16.8035 43.3151L18.0178 41.799L19.2668 39.472L19.8566 37.6738C19.8566 37.6738 20.095 38.0417 20.1689 38.3085C20.2754 38.6928 20.2287 38.9363 20.1689 39.3309C20.0874 39.8693 19.9298 40.1518 19.6832 40.6355C19.467 41.0593 18.9948 41.5947 18.9948 41.5947" stroke="#1F545B" stroke-width="0.1"/>
<path d="M19.1974 44.1975C19.1974 44.1975 19.1782 45.0851 19.2668 45.6431C19.4136 46.5675 19.6973 47.0408 20.0648 47.8996C20.3112 48.4756 20.5664 48.7482 20.7587 49.3451C20.8415 49.6022 20.9321 50.015 20.9321 50.015" stroke="#1F545B" stroke-width="0.1"/>
<path d="M41.6093 56.671C41.6093 56.671 42.4782 55.3555 42.8236 54.4145C43.2237 53.324 43.3287 52.6508 43.3787 51.4881C43.3868 51.3001 43.3838 51.1251 43.373 50.9592M44.5583 47.6097C44.5583 47.6097 44.5761 46.207 44.4195 45.2827C44.308 44.6245 44.4349 44.1293 44.0032 43.6256C43.7117 43.2855 43.0317 43.0262 43.0317 43.0262C43.0317 43.0262 43.1014 43.4812 43.2052 43.7314C43.5107 44.4672 43.4229 44.8732 43.3787 45.6706C43.3202 46.7244 43.0514 47.2949 43.0317 48.3501C43.0123 49.395 43.313 50.0377 43.373 50.9592M45.5279 55.719L46.9851 52.3343L47.9237 47.2924C47.9237 47.2924 48.2037 46.025 48.0443 44.9302M43.373 50.9592C43.373 50.9592 43.6266 51.9953 43.8991 52.6163C44.2863 53.4989 45.2175 54.6965 45.2175 54.6965C45.2175 54.6965 44.6716 53.2852 44.5236 52.3343C44.4134 51.6259 44.3038 51.2083 44.4195 50.5009C44.5166 49.9079 44.94 49.0553 44.94 49.0553C44.94 49.0553 46.2042 46.4896 46.2584 45.9526C46.3126 45.4156 46.343 45.1146 46.3972 44.5776C46.3972 44.5776 45.2175 43.7855 44.5583 43.2296C43.8991 42.6737 43.5869 42.5679 43.2052 41.9685C42.8236 41.3691 43.1011 40.3819 43.1011 40.3819C43.1011 40.3819 44.6624 42.2506 45.2175 42.5679C45.4155 42.6811 45.7799 42.8351 46.1798 43.0262M46.1798 43.0262C46.9013 43.3711 47.7386 43.8367 47.9237 44.4013C47.9785 44.5682 48.0175 44.7468 48.0443 44.9302M46.1798 43.0262C46.1798 43.0262 44.8315 42.0099 44.2461 41.1223C43.8918 40.5853 43.6265 40.2785 43.5175 39.6415C43.4525 39.2617 43.5175 38.6543 43.5175 38.6543L45.6339 41.4397L47.6809 43.4141L48.0443 44.9302" stroke="#1F545B" stroke-width="0.1"/>
<path d="M48.028 44.877L47.8198 43.0436L46.6055 41.5275L45.3565 39.2005L44.7667 37.4023C44.7667 37.4023 44.5283 37.7703 44.4544 38.037C44.3479 38.4213 44.3946 38.6648 44.4544 39.0595C44.5359 39.5978 44.6935 39.8804 44.9401 40.364C45.1563 40.7878 45.5299 41.3159 45.5299 41.3159" stroke="#1F545B" stroke-width="0.1"/>
<path d="M45.4258 43.9258C45.4258 43.9258 45.445 44.8134 45.3564 45.3713C45.2096 46.2958 44.9258 46.7691 44.5584 47.6278C44.312 48.2039 44.0568 48.4765 43.8645 49.0734C43.7817 49.3305 43.691 49.7433 43.691 49.7433" stroke="#1F545B" stroke-width="0.1"/>
<mask id="path-23-inside-2_63_118" fill="white">
<path d="M24.2655 38.498L25.477 39.0686V44.684L30.205 48.6778L24.4132 45.8851L24.2655 38.498Z"/>
</mask>
<path d="M25.477 39.0686L33.998 20.9746L45.477 26.3804V39.0686H25.477ZM24.2655 38.498L4.26947 38.898L3.6249 6.67102L32.7865 20.4041L24.2655 38.498ZM24.4132 45.8851L15.7266 63.9002L4.66284 58.5654L4.41722 46.2851L24.4132 45.8851ZM30.205 48.6778L43.1111 33.3994L21.5184 66.6929L30.205 48.6778ZM25.477 44.684L12.5708 59.9624L5.47701 53.9701V44.684H25.477ZM16.956 57.1626L15.7445 56.592L32.7865 20.4041L33.998 20.9746L16.956 57.1626ZM44.2615 38.0981L44.4092 45.4852L4.41722 46.2851L4.26947 38.898L44.2615 38.0981ZM33.0998 27.8701L38.8915 30.6627L21.5184 66.6929L15.7266 63.9002L33.0998 27.8701ZM17.2988 63.9563L12.5708 59.9624L38.3832 29.4055L43.1111 33.3994L17.2988 63.9563ZM5.47701 44.684V39.0686H45.477V44.684H5.47701Z" fill="#4AA4B0" mask="url(#path-23-inside-2_63_118)"/>
<mask id="path-25-inside-3_63_118" fill="white">
<path d="M39.6796 38.4941L38.4681 39.0647V44.6801L33.7401 48.6739L39.5318 45.8812L39.6796 38.4941Z"/>
</mask>
<path d="M38.4681 39.0647L29.9471 20.9707L18.4681 26.3765V39.0647H38.4681ZM39.6796 38.4941L59.6756 38.8941L60.3202 6.66711L31.1586 20.4001L39.6796 38.4941ZM39.5318 45.8812L48.2184 63.8963L59.2822 58.5615L59.5278 46.2812L39.5318 45.8812ZM33.7401 48.6739L20.834 33.3955L42.4267 66.689L33.7401 48.6739ZM38.4681 44.6801L51.3742 59.9585L58.4681 53.9662V44.6801H38.4681ZM46.9891 57.1587L48.2006 56.5881L31.1586 20.4001L29.9471 20.9707L46.9891 57.1587ZM19.6836 38.0942L19.5358 45.4813L59.5278 46.2812L59.6756 38.8941L19.6836 38.0942ZM30.8453 27.8662L25.0535 30.6588L42.4267 66.689L48.2184 63.8963L30.8453 27.8662ZM46.6463 63.9524L51.3742 59.9585L25.5619 29.4016L20.834 33.3955L46.6463 63.9524ZM58.4681 44.6801V39.0647H18.4681V44.6801H58.4681Z" fill="#4AA4B0" mask="url(#path-25-inside-3_63_118)"/>
<mask id="path-27-inside-4_63_118" fill="white">
<path d="M24.0585 46.2748V40.9297H22.9356L22.8174 49.0675L30.1458 49.3077L24.0585 46.2748Z"/>
</mask>
<path d="M24.0585 40.9297V20.9297H44.0585V40.9297H24.0585ZM24.0585 46.2748L15.1394 64.1759L4.05852 58.655V46.2748H24.0585ZM30.1458 49.3077L39.0648 31.4066L29.4905 69.297L30.1458 49.3077ZM22.8174 49.0675L22.1622 69.0568L2.53433 68.4133L2.81954 48.777L22.8174 49.0675ZM22.9356 40.9297L2.93774 40.6392L3.22402 20.9297H22.9356V40.9297ZM44.0585 40.9297V46.2748H4.05852V40.9297H44.0585ZM32.9776 28.3737L39.0648 31.4066L21.2267 67.2089L15.1394 64.1759L32.9776 28.3737ZM29.4905 69.297L22.1622 69.0568L23.4727 29.0782L30.801 29.3185L29.4905 69.297ZM2.81954 48.777L2.93774 40.6392L42.9335 41.2201L42.8153 49.358L2.81954 48.777ZM22.9356 20.9297H24.0585V60.9297H22.9356V20.9297Z" fill="#1F545B" mask="url(#path-27-inside-4_63_118)"/>
<mask id="path-29-inside-5_63_118" fill="white">
<path d="M40.104 46.0951V40.75H41.2268L41.345 48.8878L34.0167 49.128L40.104 46.0951Z"/>
</mask>
<path d="M40.104 40.75V20.75H20.104V40.75H40.104ZM40.104 46.0951L49.023 63.9963L60.104 58.4753V46.0951H40.104ZM34.0167 49.128L25.0976 31.2269L34.672 69.1173L34.0167 49.128ZM41.345 48.8878L42.0003 68.8771L61.6281 68.2337L61.3429 48.5974L41.345 48.8878ZM41.2268 40.75L61.2247 40.4595L60.9385 20.75H41.2268V40.75ZM20.104 40.75V46.0951H60.104V40.75H20.104ZM31.1849 28.194L25.0976 31.2269L42.9358 67.0292L49.023 63.9963L31.1849 28.194ZM34.672 69.1173L42.0003 68.8771L40.6898 28.8986L33.3615 29.1388L34.672 69.1173ZM61.3429 48.5974L61.2247 40.4595L21.229 41.0405L21.3471 49.1783L61.3429 48.5974ZM41.2268 20.75H40.104V60.75H41.2268V20.75Z" fill="#1F545B" mask="url(#path-29-inside-5_63_118)"/>
<mask id="path-31-inside-6_63_118" fill="white">
<path d="M37.8029 44.3537L38.0393 37.0566L32.0703 42.1015V49.1282L37.8029 44.3537Z"/>
</mask>
<path d="M38.0393 37.0566L25.1292 21.7815L59.4853 -7.25526L58.0288 37.7042L38.0393 37.0566ZM37.8029 44.3537L57.7924 45.0012L57.5017 53.9753L50.6025 59.7215L37.8029 44.3537ZM32.0703 49.1282L44.8698 64.4961L12.0703 91.8141L12.0703 49.1282H32.0703ZM32.0703 42.1015H12.0703V32.8185L19.1602 26.8264L32.0703 42.1015ZM58.0288 37.7042L57.7924 45.0012L17.8134 43.7061L18.0498 36.4091L58.0288 37.7042ZM50.6025 59.7215L44.8698 64.4961L19.2707 33.7604L25.0033 28.9858L50.6025 59.7215ZM12.0703 49.1282V42.1015H52.0703V49.1282H12.0703ZM19.1602 26.8264L25.1292 21.7815L50.9494 52.3318L44.9804 57.3766L19.1602 26.8264Z" fill="#4AA4B0" mask="url(#path-31-inside-6_63_118)"/>
<mask id="path-33-inside-7_63_118" fill="white">
<path d="M25.9499 44.5031L25.684 37.0859L31.653 42.1308V49.0975L25.9499 44.5031Z"/>
</mask>
<path d="M25.684 37.0859L38.594 21.8108L4.07741 -7.36162L5.6968 37.8026L25.684 37.0859ZM25.9499 44.5031L5.96275 45.2197L6.29004 54.3477L13.4029 60.0778L25.9499 44.5031ZM31.653 49.0975L19.106 64.6722L51.653 90.8921V49.0975H31.653ZM31.653 42.1308H51.653V32.8478L44.5631 26.8556L31.653 42.1308ZM5.6968 37.8026L5.96275 45.2197L45.9371 43.7864L45.6711 36.3693L5.6968 37.8026ZM13.4029 60.0778L19.106 64.6722L44.2 33.5227L38.4969 28.9283L13.4029 60.0778ZM51.653 49.0975V42.1308H11.653V49.0975H51.653ZM44.5631 26.8556L38.594 21.8108L12.7739 52.3611L18.7429 57.4059L44.5631 26.8556Z" fill="#4AA4B0" mask="url(#path-33-inside-7_63_118)"/>
<path d="M46.0587 29.8205C46.0587 29.8205 37.8817 33.2622 32.3648 33.3806C26.6677 33.503 18.2153 29.7109 18.2153 29.7109" stroke="#4AA4B0" stroke-width="0.2"/>
<path d="M45.4618 55.8008L41.5738 56.6311H23.0393L18.9383 56.2159" stroke="#4AA4B0" stroke-width="0.5"/>
<path d="M32.9227 4.05549C32.9227 4.05549 31.9497 3.81034 31.3147 3.81055C29.8813 3.81101 27.8575 5.06245 27.8575 5.06245L27.3838 7.75366C27.3838 7.75366 29.1236 7.67598 30.037 8.21632C30.66 8.58484 30.9214 9.06 30.9214 9.06C30.9214 9.06 29.8481 8.53728 29.2866 8.46126C28.4826 8.3524 27.4823 8.67898 27.4823 8.67898C27.4823 8.67898 27.3367 9.30763 27.4823 9.66184C27.8057 10.4486 28.9919 9.57709 29.6082 9.98532L30.5194 10.696C30.5194 10.696 29.6063 10.5791 29.0186 10.5841C28.4902 10.5885 28.1431 10.4572 27.6699 10.696C26.4965 11.2883 28.1267 12.7957 27.8575 14.0979C27.5873 15.4051 26.3233 17.4151 26.3233 17.4151" stroke="#45929C" stroke-width="0.2"/>
<path d="M32.891 4.05158C32.891 4.05158 33.399 4.0037 34.0384 4.00391C35.4815 4.00437 36.8798 5.27516 36.8798 5.27516L37.3567 7.95027C37.3567 7.95027 35.6051 7.87306 34.6854 8.41016C34.0582 8.77648 33.795 9.24879 33.795 9.24879C33.795 9.24879 34.8757 8.7292 35.441 8.65363C36.2505 8.54542 37.2576 8.87005 37.2576 8.87005C37.2576 8.87005 37.4042 9.49494 37.2576 9.84704C36.932 10.629 35.7378 9.76279 35.1172 10.1686L34.1998 10.875C34.1998 10.875 35.1191 10.7588 35.7108 10.7637C36.2428 10.7681 36.5922 10.6376 37.0687 10.875C38.2501 11.4637 36.6088 12.9621 36.8798 14.2566C37.1519 15.5559 38.202 17.4488 38.202 17.4488" stroke="#45929C" stroke-width="0.2"/>
<path fill-rule="evenodd" clip-rule="evenodd" d="M31.1626 2.89181C31.1626 2.89181 31.1626 2.89185 31.1096 3.01686C31.0565 3.14187 31.0566 3.14189 31.0566 3.14189L31.0557 3.14149L31.052 3.13993C31.0487 3.13851 31.0436 3.13633 31.0367 3.13347C31.023 3.12774 31.0023 3.11927 30.9752 3.10857C30.921 3.08718 30.841 3.05692 30.7396 3.02199C30.5365 2.95211 30.2477 2.86378 29.906 2.79042C29.2203 2.64318 28.3333 2.55885 27.5005 2.79408C26.7733 2.99951 26.2272 3.34345 25.8185 3.7956C25.409 4.24858 25.1317 4.8166 24.9525 5.47818C24.5929 6.80629 24.6342 8.48946 24.7779 10.3185C24.8215 10.8728 24.8745 11.4406 24.9281 12.0145C25.0504 13.3244 25.1757 14.6666 25.1988 15.955C25.2319 17.8094 25.0548 19.5795 24.3414 21.0202C23.0647 23.5986 21.1874 24.5832 19.3566 25.5435L19.2991 25.5736C17.4521 26.5426 15.6582 27.5036 14.4802 30.056C13.6994 31.7478 13.2553 33.0048 13.0018 34.3025C12.7481 35.6015 12.6841 36.9473 12.6704 38.8206C12.6388 43.1283 13.2785 45.6731 15.0964 49.5702C15.6785 50.8182 16.6377 52.3009 17.4549 53.4756C17.8629 54.062 18.2343 54.57 18.5036 54.9313C18.6383 55.112 18.7474 55.2559 18.8229 55.3547C18.8606 55.404 18.8898 55.4421 18.9097 55.4677C18.9196 55.4806 18.9271 55.4903 18.9322 55.4968L18.9396 55.5064C18.9396 55.5064 18.9397 55.5065 18.8346 55.591C18.7296 55.6755 18.7295 55.6755 18.7295 55.6755L18.7217 55.6653C18.7165 55.6587 18.7088 55.6488 18.6988 55.6357C18.6787 55.6097 18.6491 55.5713 18.6111 55.5216C18.5351 55.4221 18.4254 55.2773 18.29 55.0957C18.0193 54.7326 17.6461 54.2221 17.236 53.6327C16.4172 52.4557 15.4468 50.9571 14.8542 49.6868C13.021 45.757 12.3704 43.1718 12.4024 38.8186C12.4161 36.9425 12.48 35.5751 12.7389 34.2495C12.9981 32.9225 13.4515 31.6435 14.2375 29.9404C15.4568 27.2987 17.3254 26.3026 19.1761 25.3317L19.221 25.3082C21.0544 24.3465 22.8645 23.397 24.102 20.8979C24.7858 19.5169 24.9637 17.8007 24.9308 15.9599C24.9079 14.6822 24.7842 13.3576 24.6624 12.0527C24.6085 11.4761 24.555 10.9033 24.5108 10.3402C24.3671 8.51221 24.3206 6.78527 24.6941 5.40597C24.8815 4.71385 25.176 4.10385 25.6211 3.61145C26.0669 3.11823 26.6581 2.74944 27.4287 2.53177C28.3204 2.27989 29.2558 2.37253 29.9615 2.52404C30.3155 2.60005 30.6146 2.69154 30.8255 2.76412C30.9311 2.80044 31.0147 2.83208 31.0722 2.85477C31.101 2.86612 31.1232 2.87524 31.1385 2.8816C31.1461 2.88478 31.152 2.88726 31.156 2.88899L31.1607 2.89101L31.1626 2.89181Z" fill="#4AA4B0"/>
<path fill-rule="evenodd" clip-rule="evenodd" d="M33.1792 3.14572C33.1792 3.14572 33.1839 3.12664 33.237 3.25165C33.29 3.37666 33.2695 3.38738 33.2695 3.38738L33.2853 3.39574L33.2861 3.3954L33.2897 3.39384C33.293 3.39242 33.2982 3.39024 33.305 3.38738C33.3188 3.38165 33.3394 3.37318 33.3665 3.36248C33.4208 3.34108 33.5007 3.31082 33.6021 3.2759C33.8051 3.20601 34.0938 3.11768 34.4354 3.04432C35.121 2.89708 36.0078 2.81275 36.8403 3.04798C37.5673 3.25342 38.1133 3.59736 38.5219 4.04951C38.9312 4.50249 39.2085 5.07051 39.3875 5.73209C39.7471 7.0602 39.7058 8.74337 39.5621 10.5724C39.5185 11.1267 39.4655 11.6945 39.412 12.2684C39.2897 13.5783 39.1644 14.9205 39.1414 16.2089C39.1082 18.0633 39.2853 19.8334 39.9985 21.2741C41.2749 23.8525 43.1516 24.8371 44.982 25.7974L45.0394 25.8275C46.8859 26.7965 48.6794 27.7575 49.8571 30.3099C50.6377 32.0017 51.0816 33.2587 51.335 34.5564C51.5887 35.8554 51.6527 37.2012 51.6664 39.0745C51.6979 43.3822 51.0584 45.927 49.241 49.8241C48.659 51.0721 47.7001 52.5548 46.8831 53.7295C46.4753 54.3159 46.104 54.8239 45.8347 55.1852C45.7001 55.3659 45.591 55.5098 45.5156 55.6086C45.4779 55.6579 45.4486 55.696 45.4288 55.7216C45.4189 55.7345 45.4113 55.7442 45.4063 55.7507L45.3988 55.7603L45.3988 55.7604C45.3988 55.7604 45.3987 55.7604 45.5038 55.8449C45.6088 55.9294 45.6089 55.9294 45.6089 55.9294L45.6167 55.9192C45.6219 55.9126 45.6296 55.9027 45.6396 55.8897C45.6597 55.8636 45.6892 55.8252 45.7272 55.7755C45.8032 55.676 45.913 55.5312 46.0483 55.3496C46.3189 54.9865 46.692 54.476 47.1019 53.8866C47.9205 52.7096 48.8907 51.211 49.4832 49.9407C51.3158 46.0109 51.9662 43.4257 51.9343 39.0725C51.9206 37.1964 51.8567 35.829 51.5979 34.5034C51.3387 33.1764 50.8855 31.8974 50.0997 30.1943C48.8807 27.5526 47.0126 26.5565 45.1624 25.5856L45.1175 25.5621C43.2846 24.6004 41.475 23.6509 40.2379 21.1518C39.5543 19.7708 39.3764 18.0546 39.4093 16.2138C39.4321 14.9362 39.5558 13.6115 39.6776 12.3066C39.7315 11.73 39.7849 11.1572 39.8292 10.5941C39.9728 8.76612 40.0193 7.03918 39.6459 5.65988C39.4585 4.96776 39.1642 4.35776 38.7192 3.86536C38.2735 3.37213 37.6824 3.00335 36.912 2.78567C36.0206 2.5338 35.0854 2.62644 34.38 2.77794C34.0261 2.85396 33.727 2.94544 33.5161 3.01803C33.4106 3.05434 33.3271 3.08598 33.2695 3.10868C33.2408 3.12003 33.2185 3.12915 33.2033 3.1355C33.1957 3.13868 33.1898 3.14117 33.1858 3.1429L33.1811 3.14492L33.1797 3.14549L33.1792 3.14572Z" fill="#4AA4B0"/>
<path d="M33.5512 2.45384C34.6493 2.07281 36.6101 1.8372 38.5882 2.53547C43.3073 4.20131 40.7845 8.8225 40.5434 15.3817C40.3024 21.9409 46.6308 22.5974 50.5324 27.2209C54.4339 31.8444 52.9965 37.0188 52.9965 37.0188L52.0993 40.3393L51.3895 43.7958" stroke="#4AA4B0" stroke-width="0.3"/>
<path d="M42.0672 5.29834L41.4359 8.33463" stroke="#1F545B" stroke-width="0.3"/>
<path d="M42.9222 2.3375C42.9222 2.3375 41.5145 3.31833 41.2162 4.32577C41.1621 4.50829 41.1113 4.80241 41.1113 4.80241" stroke="#1F545B" stroke-width="0.3"/>
<path d="M40.4134 12.0593L41.5409 9.72678" stroke="#1F545B" stroke-width="0.3"/>
<path d="M42.8279 2.48267C43.447 3.82166 43.5136 4.63537 43.1206 6.05989C42.7591 7.36999 41.2725 9.05234 41.2725 9.05234" stroke="#1F545B" stroke-width="0.3"/>
<path d="M39.8477 4.51758L39.8571 7.18052" stroke="#1F545B" stroke-width="0.3"/>
<path d="M39.8815 7.18165C39.8815 7.18165 40.9869 5.10771 40.8239 3.71863C40.6966 2.63403 39.6981 1.13344 39.6981 1.13344C39.6981 1.13344 38.58 2.61977 38.6686 3.68346C38.7093 4.17102 39.03 4.88881 39.03 4.88881" stroke="#1F545B" stroke-width="0.3"/>
<path d="M37.5072 6.56757C37.1314 5.37269 37.5576 3.37786 37.5576 3.37786C37.5576 3.37786 39.2209 4.78506 39.6465 6.00276C40.082 7.24875 39.5935 9.36035 39.5935 9.36035C39.5935 9.36035 37.9096 7.847 37.5072 6.56757Z" stroke="#1F545B" stroke-width="0.3"/>
<path d="M38.7252 6.53931L39.6191 9.3606" stroke="#1F545B" stroke-width="0.3"/>
<path d="M41.1923 9.31541C41.1673 9.29102 42.9495 7.25705 42.9495 7.25705C42.9495 7.25705 42.9097 8.82342 42.5047 9.72065C41.9993 10.8405 40.3873 12.109 40.3873 12.109L40.2953 11.5078" stroke="#1F545B" stroke-width="0.3"/>
<path d="M40.7347 7.77225L40.2706 11.459" stroke="#1F545B" stroke-width="0.3"/>
<path d="M39.8815 7.20597L41.04 4.51412C41.04 4.51412 41.5792 6.4843 41.496 7.76007C41.3964 9.28682 40.2955 11.5067 40.2955 11.5067L39.6192 9.36069" stroke="#1F545B" stroke-width="0.3"/>
<path d="M22.3496 5.20263L22.9809 8.23893" stroke="#1F545B" stroke-width="0.3"/>
<path d="M21.4946 2.2418C21.4946 2.2418 22.9024 3.22263 23.2007 4.23007C23.2548 4.41259 23.3055 4.70671 23.3055 4.70671" stroke="#1F545B" stroke-width="0.3"/>
<path d="M24.0034 11.9636L22.876 9.63107" stroke="#1F545B" stroke-width="0.3"/>
<path d="M21.5889 2.38696C20.9697 3.72596 20.9031 4.53966 21.2962 5.96418C21.6577 7.27429 23.1442 8.95664 23.1442 8.95664" stroke="#1F545B" stroke-width="0.3"/>
<path d="M24.5691 4.42188L24.5596 7.08482" stroke="#1F545B" stroke-width="0.3"/>
<path d="M24.5354 7.08595C24.5354 7.08595 23.4299 5.012 23.593 3.62293C23.7203 2.53833 24.7188 1.03774 24.7188 1.03774C24.7188 1.03774 25.8369 2.52407 25.7482 3.58776C25.7076 4.07532 25.3868 4.7931 25.3868 4.7931" stroke="#1F545B" stroke-width="0.3"/>
<path d="M26.9097 6.47187C27.2855 5.27699 26.8593 3.28216 26.8593 3.28216C26.8593 3.28216 25.1959 4.68936 24.7703 5.90706C24.3348 7.15304 24.8234 9.26464 24.8234 9.26464C24.8234 9.26464 26.5073 7.7513 26.9097 6.47187Z" stroke="#1F545B" stroke-width="0.3"/>
<path d="M25.6915 6.4436L24.7977 9.2649" stroke="#1F545B" stroke-width="0.3"/>
<path d="M23.2246 9.21971C23.2496 9.19531 21.4674 7.16135 21.4674 7.16135C21.4674 7.16135 21.5071 8.72772 21.9121 9.62495C22.4176 10.7448 24.0296 12.0133 24.0296 12.0133L24.1215 11.4121" stroke="#1F545B" stroke-width="0.3"/>
<path d="M23.6822 7.67654L24.1463 11.3633" stroke="#1F545B" stroke-width="0.3"/>
<path d="M24.5353 7.11026L23.3768 4.41841C23.3768 4.41841 22.8377 6.38859 22.9209 7.66437C23.0204 9.19112 24.1214 11.411 24.1214 11.411L24.7976 9.26499" stroke="#1F545B" stroke-width="0.3"/>
<path d="M0.5625 70.375C0.619792 70.2917 0.684896 70.1693 0.757812 70.0078C0.830729 69.8411 0.888021 69.6328 0.929688 69.3828C0.986979 69.0182 1.04948 68.6094 1.11719 68.1562C1.1901 67.6979 1.26302 67.2188 1.33594 66.7188C1.41406 66.2188 1.48958 65.7083 1.5625 65.1875C1.64062 64.6615 1.71354 64.1458 1.78125 63.6406C1.85417 63.1302 1.92188 62.6406 1.98438 62.1719C2.05208 61.6979 2.11198 61.2656 2.16406 60.875C2.21615 60.4844 2.25781 60.1458 2.28906 59.8594C2.32552 59.5677 2.35156 59.349 2.36719 59.2031H3.35938L8.27344 68.3906L13.1484 59.2031H13.8906L15.1719 68.4844C15.2083 68.776 15.2474 69.026 15.2891 69.2344C15.3307 69.4427 15.3724 69.6224 15.4141 69.7734C15.4557 69.9193 15.4948 70.0417 15.5312 70.1406C15.5729 70.2344 15.612 70.3125 15.6484 70.375V70.4062H13.6797V70.375C13.7057 70.3177 13.7292 70.224 13.75 70.0938C13.776 69.9635 13.7891 69.8073 13.7891 69.625C13.7891 69.5573 13.7865 69.4896 13.7812 69.4219C13.776 69.349 13.7682 69.2708 13.7578 69.1875L12.7656 61.7031L8.15625 70.375L7.61719 70.3125L2.97656 61.625C2.79427 62.8594 2.63542 64 2.5 65.0469C2.44271 65.4948 2.38542 65.9427 2.32812 66.3906C2.27083 66.8333 2.21875 67.2474 2.17188 67.6328C2.13021 68.0182 2.09635 68.3594 2.07031 68.6562C2.04427 68.9479 2.03125 69.1641 2.03125 69.3047C2.03125 69.4818 2.03646 69.638 2.04688 69.7734C2.05729 69.9089 2.06771 70.0234 2.07812 70.1172C2.09375 70.2266 2.10938 70.3229 2.125 70.4062H0.5625V70.375ZM17.6094 65.2188C17.6094 64.75 17.6042 64.3438 17.5938 64C17.5833 63.651 17.5677 63.3516 17.5469 63.1016C17.5312 62.8464 17.5078 62.6328 17.4766 62.4609C17.4505 62.2891 17.4193 62.1484 17.3828 62.0391V62.0078H19.1953V62.0391C19.1589 62.1484 19.125 62.2891 19.0938 62.4609C19.0677 62.6328 19.0443 62.8464 19.0234 63.1016C19.0078 63.3516 18.9948 63.651 18.9844 64C18.974 64.3438 18.9688 64.75 18.9688 65.2188V67.1875C18.9688 67.6562 18.974 68.0651 18.9844 68.4141C18.9948 68.763 19.0078 69.0651 19.0234 69.3203C19.0443 69.5703 19.0677 69.7812 19.0938 69.9531C19.125 70.125 19.1589 70.2656 19.1953 70.375V70.4062H17.3828V70.375C17.4193 70.2656 17.4505 70.125 17.4766 69.9531C17.5078 69.7812 17.5312 69.5703 17.5469 69.3203C17.5677 69.0651 17.5833 68.763 17.5938 68.4141C17.6042 68.0651 17.6094 67.6562 17.6094 67.1875V65.2188ZM28.875 70.5156H28.5703L22.3594 64.4062V67.1875C22.3594 67.6562 22.362 68.0651 22.3672 68.4141C22.3724 68.763 22.3802 69.0651 22.3906 69.3203C22.4062 69.5703 22.4245 69.7812 22.4453 69.9531C22.4714 70.125 22.5026 70.2656 22.5391 70.375V70.4062H21.3672V70.375C21.4036 70.2656 21.4349 70.125 21.4609 69.9531C21.487 69.7812 21.5078 69.5703 21.5234 69.3203C21.5391 69.0651 21.5495 68.763 21.5547 68.4141C21.5599 68.0651 21.5625 67.6562 21.5625 67.1875V65.2188C21.5625 64.75 21.5599 64.3438 21.5547 64C21.5495 63.651 21.5391 63.3516 21.5234 63.1016C21.5078 62.8464 21.487 62.6328 21.4609 62.4609C21.4349 62.2891 21.4036 62.1484 21.3672 62.0391V62.0078H21.8516L28.0703 68.1484V65.2188C28.0703 64.75 28.0677 64.3438 28.0625 64C28.0573 63.651 28.0469 63.3516 28.0312 63.1016C28.0208 62.8464 28.0052 62.6328 27.9844 62.4609C27.9635 62.2891 27.9349 62.1484 27.8984 62.0391V62.0078H29.0625V62.0391C29.026 62.1484 28.9948 62.2891 28.9688 62.4609C28.9479 62.6328 28.9297 62.8464 28.9141 63.1016C28.8984 63.3516 28.888 63.651 28.8828 64C28.8776 64.3438 28.875 64.75 28.875 65.2188V70.5156ZM31.1172 62.0078C31.6276 62.0078 32.151 62.0078 32.6875 62.0078C33.224 62.0026 33.7214 61.9974 34.1797 61.9922C34.638 61.9818 35.0312 61.9714 35.3594 61.9609C35.6927 61.9505 35.9115 61.9349 36.0156 61.9141L35.7109 62.7578C35.5703 62.7214 35.4115 62.6875 35.2344 62.6562C35.0781 62.6302 34.888 62.6068 34.6641 62.5859C34.4453 62.5599 34.1901 62.5469 33.8984 62.5469C33.7943 62.5469 33.6745 62.5521 33.5391 62.5625C33.4036 62.5677 33.2734 62.5755 33.1484 62.5859C33.0026 62.5964 32.8542 62.6068 32.7031 62.6172V65.7031C33.125 65.6979 33.5052 65.6875 33.8438 65.6719C34.1823 65.6562 34.4714 65.6354 34.7109 65.6094C34.9922 65.5885 35.2396 65.5599 35.4531 65.5234L35.2656 66.4531C34.9792 66.4167 34.6901 66.3854 34.3984 66.3594C34.1484 66.3333 33.8724 66.3125 33.5703 66.2969C33.2682 66.276 32.9792 66.2656 32.7031 66.2656V69.8125C33.1875 69.8125 33.6328 69.7943 34.0391 69.7578C34.4453 69.7161 34.7995 69.6719 35.1016 69.625C35.4557 69.5677 35.776 69.5026 36.0625 69.4297L35.8828 70.4531C35.8047 70.4479 35.6771 70.4401 35.5 70.4297C35.3281 70.4245 35.1458 70.4193 34.9531 70.4141C34.7656 70.4141 34.5885 70.4115 34.4219 70.4062C34.2552 70.4062 34.1406 70.4062 34.0781 70.4062H31.1172V70.375C31.1536 70.2656 31.1849 70.125 31.2109 69.9531C31.2422 69.7812 31.2656 69.5703 31.2812 69.3203C31.3021 69.0651 31.3177 68.763 31.3281 68.4141C31.3385 68.0651 31.3438 67.6562 31.3438 67.1875V65.2188C31.3438 64.75 31.3385 64.3438 31.3281 64C31.3177 63.651 31.3021 63.3516 31.2812 63.1016C31.2656 62.8464 31.2422 62.6328 31.2109 62.4609C31.1849 62.2891 31.1536 62.1484 31.1172 62.0391V62.0078ZM39.3906 66.3281C39.4948 66.3438 39.599 66.3568 39.7031 66.3672C39.8125 66.3724 39.9167 66.375 40.0156 66.375C40.6667 66.375 41.1589 66.2005 41.4922 65.8516C41.8307 65.5026 42 64.9792 42 64.2812C42 63.7083 41.8646 63.2552 41.5938 62.9219C41.3281 62.5885 40.9349 62.4219 40.4141 62.4219C40.2474 62.4219 40.099 62.4297 39.9688 62.4453C39.8438 62.4557 39.737 62.4688 39.6484 62.4844C39.5495 62.5052 39.4635 62.526 39.3906 62.5469V66.3281ZM40.5859 66.8359C40.4818 66.8516 40.3776 66.862 40.2734 66.8672C40.1745 66.8672 40.0729 66.8672 39.9688 66.8672C39.8854 66.8672 39.7943 66.8646 39.6953 66.8594C39.5964 66.8542 39.4948 66.8464 39.3906 66.8359V67.2188C39.3906 67.6823 39.3958 68.0885 39.4062 68.4375C39.4167 68.7812 39.4297 69.0781 39.4453 69.3281C39.4661 69.5781 39.4896 69.7891 39.5156 69.9609C39.5417 70.1276 39.5729 70.2656 39.6094 70.375V70.4062H37.8047V70.375C37.8411 70.2656 37.8724 70.125 37.8984 69.9531C37.9297 69.7812 37.9531 69.5703 37.9688 69.3203C37.9896 69.0651 38.0052 68.763 38.0156 68.4141C38.026 68.0651 38.0312 67.6562 38.0312 67.1875V65.2188C38.0312 64.75 38.026 64.3438 38.0156 64C38.0052 63.651 37.9896 63.3516 37.9688 63.1016C37.9531 62.8464 37.9297 62.6328 37.8984 62.4609C37.8724 62.2891 37.8411 62.1484 37.8047 62.0391V62.0078C37.888 62.013 37.9766 62.0182 38.0703 62.0234C38.1484 62.0286 38.2344 62.0339 38.3281 62.0391C38.4271 62.0391 38.526 62.0391 38.625 62.0391C38.7917 62.0391 39.0391 62.0234 39.3672 61.9922C39.6953 61.9609 40.0807 61.9453 40.5234 61.9453C40.9714 61.9453 41.3776 62 41.7422 62.1094C42.112 62.2188 42.4271 62.375 42.6875 62.5781C42.9531 62.7812 43.1562 63.0286 43.2969 63.3203C43.4427 63.612 43.5156 63.9375 43.5156 64.2969C43.5156 64.5781 43.4766 64.8359 43.3984 65.0703C43.3203 65.2995 43.2109 65.5078 43.0703 65.6953C42.9297 65.8776 42.763 66.0391 42.5703 66.1797C42.3776 66.3203 42.1641 66.4427 41.9297 66.5469L43.5625 68.8516C43.7031 69.0391 43.8438 69.2188 43.9844 69.3906C44.1302 69.5625 44.2682 69.7161 44.3984 69.8516C44.5286 69.987 44.651 70.1016 44.7656 70.1953C44.8802 70.2839 44.9766 70.3438 45.0547 70.375V70.4062H43.0078C43.0078 70.3594 42.974 70.2786 42.9062 70.1641C42.8438 70.0443 42.7682 69.9219 42.6797 69.7969C42.5964 69.6667 42.5104 69.5417 42.4219 69.4219C42.3385 69.3021 42.276 69.2135 42.2344 69.1562L40.5859 66.8359ZM46.5 62.0078V62.0391C46.4896 62.0651 46.4818 62.1068 46.4766 62.1641C46.4714 62.2214 46.4688 62.2708 46.4688 62.3125C46.4688 62.4792 46.4922 62.6667 46.5391 62.875C46.5911 63.0781 46.6849 63.3333 46.8203 63.6406L48.8984 68.3438L50.9922 63.7031C51.0391 63.6042 51.0859 63.5 51.1328 63.3906C51.1797 63.276 51.224 63.1589 51.2656 63.0391C51.3073 62.9193 51.3411 62.7995 51.3672 62.6797C51.3932 62.5547 51.4062 62.4323 51.4062 62.3125C51.4062 62.2448 51.401 62.1875 51.3906 62.1406C51.3802 62.0885 51.3698 62.0547 51.3594 62.0391V62.0078H52.8359V62.0391C52.737 62.1432 52.6094 62.3281 52.4531 62.5938C52.2969 62.8542 52.1354 63.1875 51.9688 63.5938L48.8516 70.5156H48.3516L45.4766 63.9922C45.3724 63.7526 45.2604 63.5234 45.1406 63.3047C45.026 63.0807 44.9167 62.8828 44.8125 62.7109C44.7135 62.5339 44.625 62.388 44.5469 62.2734C44.4688 62.1536 44.4141 62.0755 44.3828 62.0391V62.0078H46.5ZM58.4219 67.7656C58.2812 67.7656 58.1042 67.7656 57.8906 67.7656C57.6823 67.7656 57.4531 67.7656 57.2031 67.7656C56.9531 67.7656 56.6953 67.7656 56.4297 67.7656C56.1641 67.7656 55.9115 67.7682 55.6719 67.7734C55.4323 67.7734 55.2135 67.776 55.0156 67.7812C54.8177 67.7812 54.6641 67.7812 54.5547 67.7812L54.2656 68.3906C54.1406 68.6406 54.0339 68.8594 53.9453 69.0469C53.8568 69.2292 53.7839 69.3906 53.7266 69.5312C53.6693 69.6719 53.6276 69.7943 53.6016 69.8984C53.5755 69.9974 53.5625 70.0911 53.5625 70.1797C53.5625 70.237 53.5651 70.2812 53.5703 70.3125C53.5755 70.3385 53.5833 70.3594 53.5938 70.375V70.4062H52.2188V70.375C52.2552 70.3385 52.3125 70.2604 52.3906 70.1406C52.4688 70.0156 52.5573 69.8646 52.6562 69.6875C52.7604 69.5104 52.8698 69.3099 52.9844 69.0859C53.1042 68.862 53.2214 68.6302 53.3359 68.3906L56.5234 61.8125H57.1094L60.2344 68.3906C60.3542 68.6406 60.474 68.8802 60.5938 69.1094C60.7188 69.3385 60.8333 69.5443 60.9375 69.7266C61.0417 69.9036 61.1328 70.0521 61.2109 70.1719C61.2891 70.2865 61.3411 70.3542 61.3672 70.375V70.4062H59.3672C59.3776 70.3646 59.3828 70.3281 59.3828 70.2969C59.3828 70.2604 59.3828 70.2214 59.3828 70.1797C59.3828 70.0651 59.3568 69.9271 59.3047 69.7656C59.2578 69.6042 59.1979 69.4401 59.125 69.2734C59.0573 69.1016 58.9844 68.9375 58.9062 68.7812C58.8333 68.625 58.7734 68.4948 58.7266 68.3906L58.4219 67.7656ZM54.8594 67.1562H55.3359C55.5547 67.1562 55.7865 67.1562 56.0312 67.1562C56.2812 67.151 56.5312 67.1484 56.7812 67.1484C57.0312 67.1484 57.2734 67.1484 57.5078 67.1484C57.7422 67.1432 57.9531 67.1406 58.1406 67.1406L56.5234 63.6875L54.8594 67.1562Z" fill="#1F545B"/>
</svg>
