<svg width="99" height="99" viewBox="0 0 99 99" fill="none" xmlns="http://www.w3.org/2000/svg">
<circle cx="49.25" cy="49.25" r="48.75" fill="white" stroke="#1F545B"/>
<circle cx="49.2503" cy="35.4514" r="18.8933" fill="#1F545B"/>
<ellipse cx="49.2504" cy="75.1482" rx="33.5409" ry="11.8879" fill="#1F545B"/>
<path d="M72.2881 18.8408L70.7727 26.013" stroke="#1F545B" stroke-width="0.8"/>
<path d="M74.3403 11.8481C74.3403 11.8481 70.9611 14.1649 70.2449 16.5447C70.1151 16.9758 69.9933 17.6706 69.9933 17.6706" stroke="#1F545B" stroke-width="0.8"/>
<path d="M68.3171 34.8133L71.0235 29.3035" stroke="#1F545B" stroke-width="0.8"/>
<path d="M74.1139 12.1885C75.6001 15.3514 75.7599 17.2735 74.8164 20.6384C73.9486 23.7331 70.3803 27.707 70.3803 27.707" stroke="#1F545B" stroke-width="0.8"/>
<path d="M66.959 16.9988L66.9797 23.289" stroke="#1F545B" stroke-width="0.8"/>
<path d="M67.0417 23.29C67.0417 23.29 69.6953 18.391 69.3039 15.1098C68.9983 12.5479 66.6014 9.00324 66.6014 9.00324C66.6014 9.00324 63.9175 12.5142 64.1303 15.0268C64.2278 16.1785 64.9978 17.874 64.9978 17.874" stroke="#1F545B" stroke-width="0.8"/>
<path d="M61.3429 21.8382C60.4409 19.0157 61.4639 14.3036 61.4639 14.3036C61.4639 14.3036 65.4568 17.6277 66.4784 20.504C67.5238 23.4472 66.3511 28.4352 66.3511 28.4352C66.3511 28.4352 62.3089 24.8604 61.3429 21.8382Z" stroke="#1F545B" stroke-width="0.8"/>
<path d="M64.2651 21.7727L66.4107 28.437" stroke="#1F545B" stroke-width="0.8"/>
<path d="M70.1866 28.3276C70.1266 28.27 74.4046 23.4654 74.4046 23.4654C74.4046 23.4654 74.3092 27.1654 73.3371 29.2848C72.1237 31.93 68.2542 34.9264 68.2542 34.9264L68.0335 33.5062" stroke="#1F545B" stroke-width="0.8"/>
<path d="M69.0896 24.6831L67.9756 33.3917" stroke="#1F545B" stroke-width="0.8"/>
<path d="M67.0412 23.3461L69.8221 16.9876C69.8221 16.9876 71.1163 21.6414 70.9166 24.655C70.6776 28.2614 68.0348 33.5052 68.0348 33.5052L66.4115 28.4359" stroke="#1F545B" stroke-width="0.8"/>
<path d="M26.1714 19.2652L27.6868 26.4373" stroke="#1F545B" stroke-width="0.8"/>
<path d="M24.1187 12.2734C24.1187 12.2734 27.4979 14.5902 28.2141 16.9699C28.3438 17.4011 28.4657 18.0958 28.4657 18.0958" stroke="#1F545B" stroke-width="0.8"/>
<path d="M30.1419 35.2386L27.4355 29.7288" stroke="#1F545B" stroke-width="0.8"/>
<path d="M24.3451 12.6128C22.8589 15.7757 22.6991 17.6978 23.6426 21.0627C24.5104 24.1574 28.0787 28.1314 28.0787 28.1314" stroke="#1F545B" stroke-width="0.8"/>
<path d="M31.5 17.4238L31.4792 23.714" stroke="#1F545B" stroke-width="0.8"/>
<path d="M31.4178 23.7151C31.4178 23.7151 28.7642 18.8161 29.1556 15.5349C29.4612 12.9729 31.8581 9.42829 31.8581 9.42829C31.8581 9.42829 34.542 12.9392 34.3292 15.4518C34.2316 16.6035 33.4617 18.299 33.4617 18.299" stroke="#1F545B" stroke-width="0.8"/>
<path d="M37.1165 22.2635C38.0186 19.441 36.9955 14.7289 36.9955 14.7289C36.9955 14.7289 33.0027 18.0529 31.981 20.9293C30.9357 23.8725 32.1084 28.8604 32.1084 28.8604C32.1084 28.8604 36.1506 25.2857 37.1165 22.2635Z" stroke="#1F545B" stroke-width="0.8"/>
<path d="M34.1943 22.1978L32.0487 28.8621" stroke="#1F545B" stroke-width="0.8"/>
<path d="M28.2709 28.7526C28.3309 28.695 24.0529 23.8905 24.0529 23.8905C24.0529 23.8905 24.1483 27.5905 25.1205 29.7099C26.3338 32.3551 30.2033 35.3515 30.2033 35.3515L30.4241 33.9313" stroke="#1F545B" stroke-width="0.8"/>
<path d="M29.3694 25.1074L30.4834 33.816" stroke="#1F545B" stroke-width="0.8"/>
<path d="M31.4183 23.7712L28.6374 17.4126C28.6374 17.4126 27.3432 22.0665 27.5429 25.0801C27.7819 28.6865 30.4247 33.9303 30.4247 33.9303L32.048 28.861" stroke="#1F545B" stroke-width="0.8"/>
</svg>
