<svg width="73" height="66" viewBox="0 0 73 66" fill="none" xmlns="http://www.w3.org/2000/svg">
<path d="M23.7263 36.486L39.9684 44.1562" stroke="#1F545B"/>
<path d="M7.03916 30.1302C7.03916 30.1302 16.5678 26.9688 22.273 29.0974C23.3067 29.483 24.843 30.2747 24.843 30.2747" stroke="#1F545B"/>
<path d="M60.7799 52.4061L46.0173 49.5233" stroke="#1F545B"/>
<path d="M8.03821 30.1895C12.0083 37.7767 15.5225 40.9367 23.4872 44.0815C30.8123 46.9737 43.855 45.8986 43.855 45.8986" stroke="#1F545B"/>
<path d="M28.0264 23.3574L40.2709 32.7187" stroke="#1F545B"/>
<path d="M40.1826 32.8399C40.1826 32.8399 26.6902 30.7592 20.8669 25.1333C16.32 20.7406 12.9544 10.8107 12.9544 10.8107C12.9544 10.8107 23.783 10.7755 28.371 14.9139C30.474 16.8108 32.6418 20.8258 32.6418 20.8258" stroke="#1F545B"/>
<path d="M45.7954 19.5667C41.624 13.6239 30.9124 8.63816 30.9124 8.63816C30.9124 8.63816 31.4826 21.3557 35.582 27.6116C39.7767 34.0129 51.2483 39.1153 51.2483 39.1153C51.2483 39.1153 50.2619 25.9299 45.7954 19.5667Z" stroke="#1F545B"/>
<path d="M41.334 25.1738L51.1601 39.2361" stroke="#1F545B"/>
<path d="M45.3511 46.4416C45.3274 46.2392 29.6123 47.4684 29.6123 47.4684C29.6123 47.4684 36.9743 52.7648 42.5508 54.0081C49.5108 55.56 61.0921 52.4485 61.0921 52.4485L58.6477 49.9134" stroke="#1F545B"/>
<path d="M39.8663 38.8983L58.5117 49.6287" stroke="#1F545B"/>
<path d="M40.2938 32.9219L23.7644 28.9268C23.7644 28.9268 30.9286 38.3485 37.1055 42.4242C44.4976 47.3017 58.6469 49.9145 58.6469 49.9145L51.1595 39.235" stroke="#1F545B"/>
</svg>
