<svg width="900" height="787" viewBox="0 0 900 787" fill="none" xmlns="http://www.w3.org/2000/svg">
<g clip-path="url(#clip0_169_238)">
<rect width="900" height="787" fill="#E3F9F7"/>
<path d="M1 247C1 247 13.8515 168.521 56.9346 140C119.409 98.642 187.32 175.912 261.825 151.5C317.21 133.353 320.058 81.7127 377.95 70C446.703 56.09 480.185 126.647 550.01 117C613.141 108.278 621.287 45.764 684.982 40.5C747.678 35.3187 773.139 105.109 833.938 91.5C889.328 79.1024 930 0 930 0" stroke="#1F545B" stroke-width="0.5"/>
<path d="M-83 247C-83 247 -70.1485 168.521 -27.0654 140C35.4094 98.642 103.32 175.912 177.825 151.5C233.21 133.353 236.058 81.7127 293.95 70C362.703 56.09 396.185 126.647 466.01 117C529.141 108.278 537.287 45.764 600.982 40.5C663.678 35.3187 689.139 105.109 749.938 91.5C805.328 79.1024 846 0 846 0" stroke="#1F545B" stroke-width="2"/>
<path d="M871 787C871 787 857.803 693.587 813.56 659.64C749.404 610.412 679.666 702.385 603.156 673.328C546.28 651.728 543.356 590.261 483.906 576.32C413.302 559.763 378.92 643.745 307.216 632.263C242.386 621.882 234.02 547.472 168.611 541.206C104.229 535.039 78.0821 618.109 15.6466 601.911C-41.2333 587.154 -83 493 -83 493" stroke="#1F545B"/>
<path d="M957 785C957 785 943.803 691.905 899.56 658.073C835.404 609.013 765.666 700.673 689.156 671.715C632.28 650.188 629.356 588.93 569.906 575.036C499.302 558.536 464.92 642.233 393.216 630.789C328.386 620.443 320.02 546.287 254.611 540.043C190.229 533.896 164.082 616.683 101.647 600.54C44.7667 585.834 3.00001 492 3.00001 492" stroke="#1F545B" stroke-width="0.5"/>
</g>
<defs>
<clipPath id="clip0_169_238">
<rect width="900" height="787" fill="white"/>
</clipPath>
</defs>
</svg>
