<svg width="1435" height="765" viewBox="0 0 1435 765" fill="none" xmlns="http://www.w3.org/2000/svg">
<g clip-path="url(#clip0_167_214)">
<rect width="1435" height="765" fill="white"/>
<rect y="-6" width="1435" height="776" fill="#E3F9F7"/>
<path d="M-10 247C-10 247 0.568981 168.521 36 140C87.3787 98.642 143.227 175.912 204.5 151.5C250.048 133.353 252.39 81.7127 300 70C356.542 56.09 384.077 126.647 441.5 117C493.418 108.278 500.118 45.764 552.5 40.5C604.06 35.3187 624.999 105.109 675 91.5C720.552 79.1024 754 0 754 0" stroke="#1F545B" stroke-width="0.5"/>
<path d="M-79 247.5C-79 247.5 -68.431 169.021 -33 140.5C18.3787 99.142 74.2275 176.412 135.5 152C181.048 133.853 183.39 82.2127 231 70.5C287.542 56.59 315.077 127.147 372.5 117.5C424.418 108.778 431.118 46.264 483.5 41C535.06 35.8187 555.999 105.609 606 92C651.552 79.6024 685 0.5 685 0.5" stroke="#1F545B" stroke-width="2"/>
<path d="M720 765C720 765 709.431 695.417 674 670.13C622.621 633.46 566.773 701.97 505.5 680.326C459.952 664.236 457.61 618.45 410 608.065C353.458 595.732 325.923 658.29 268.5 649.737C216.582 642.004 209.882 586.576 157.5 581.909C105.94 577.315 85.0008 639.193 35 627.128C-10.5517 616.135 -44 546 -44 546" stroke="#1F545B"/>
<path d="M789 763C789 763 778.085 694.053 741.495 668.996C688.435 632.661 630.759 700.546 567.481 679.099C520.443 663.156 518.024 617.788 468.856 607.498C410.464 595.277 382.028 657.264 322.726 648.789C269.109 641.127 262.19 586.206 208.094 581.581C154.847 577.029 133.222 638.342 81.5851 626.387C34.5429 615.495 3.05176e-05 546 3.05176e-05 546" stroke="#1F545B" stroke-width="0.5"/>
</g>
<defs>
<clipPath id="clip0_167_214">
<rect width="1435" height="765" fill="white"/>
</clipPath>
</defs>
</svg>
