<svg width="375" height="1440" viewBox="0 0 375 1440" fill="none" xmlns="http://www.w3.org/2000/svg">
<g clip-path="url(#clip0_224_527)">
<rect width="375" height="1440" fill="#C9DCDA"/>
<path d="M0.342683 179.414C0.342683 179.414 354.327 378.451 353.417 572.415C352.513 765.373 3.41886 769.215 0.342683 962.156C-2.88027 1164.3 388.656 1165.73 374.632 1367.54C361.567 1555.56 -12.8924 1538.64 0.342683 1726.65C12.3846 1897.71 353.417 2043.4 353.417 2043.4" stroke="white" stroke-width="2"/>
<path d="M0.305224 92C0.305224 92 315.595 304.066 314.785 510.727C313.979 716.316 3.04513 720.409 0.305224 925.981C-2.56543 1141.36 346.171 1142.88 333.68 1357.9C322.043 1558.23 -11.4831 1540.2 0.305224 1740.52C11.0309 1922.78 314.785 2078 314.785 2078" stroke="white"/>
</g>
<defs>
<clipPath id="clip0_224_527">
<rect width="375" height="1440" fill="white"/>
</clipPath>
</defs>
</svg>
