<svg width="1426" height="1486" viewBox="0 0 1426 1486" fill="none" xmlns="http://www.w3.org/2000/svg">
<g clip-path="url(#clip0_222_483)">
<rect width="1426" height="1486" fill="#C9DCDA"/>
<path d="M5.22571 8C5.22571 8 238.383 165.821 237.784 319.62C237.188 472.622 7.25189 475.668 5.22571 628.657C3.10286 788.945 260.995 790.078 251.758 950.096C243.152 1099.18 -3.49178 1085.77 5.22571 1234.84C13.1574 1370.48 237.784 1486 237.784 1486" stroke="white" stroke-width="2"/>
<path d="M-60.7743 -105C-60.7743 -105 172.383 66.2757 171.784 233.186C171.188 399.231 -58.7481 402.537 -60.7743 568.568C-62.8971 742.521 194.995 743.75 185.758 917.41C177.152 1079.2 -69.4918 1064.65 -60.7743 1226.43C-52.8426 1373.63 171.784 1499 171.784 1499" stroke="white" stroke-width="2"/>
<path d="M1425.73 38C1425.73 38 1151.99 194.006 1152.69 346.036C1153.39 497.278 1423.36 500.289 1425.73 651.518C1428.23 809.963 1125.44 811.082 1136.28 969.26C1146.39 1116.63 1435.97 1103.37 1425.73 1250.73C1416.42 1384.81 1152.69 1499 1152.69 1499" stroke="white" stroke-width="2"/>
<path d="M1449.02 -44C1449.02 -44 1215.86 127.276 1216.46 294.186C1217.05 460.231 1446.99 463.537 1449.02 629.568C1451.14 803.521 1193.25 804.75 1202.48 978.41C1211.09 1140.2 1457.73 1125.65 1449.02 1287.43C1441.08 1434.63 1216.46 1560 1216.46 1560" stroke="white" stroke-width="2"/>
</g>
<defs>
<clipPath id="clip0_222_483">
<rect width="1426" height="1486" fill="white"/>
</clipPath>
</defs>
</svg>
