<svg width="73" height="66" viewBox="0 0 73 66" fill="none" xmlns="http://www.w3.org/2000/svg">
<path d="M48.3044 36.486L32.0623 44.1562" stroke="#1F545B"/>
<path d="M64.9916 30.1302C64.9916 30.1302 55.463 26.9688 49.7577 29.0974C48.7241 29.483 47.1877 30.2747 47.1877 30.2747" stroke="#1F545B"/>
<path d="M11.2509 52.4061L26.0135 49.5233" stroke="#1F545B"/>
<path d="M63.9926 30.1895C60.0225 37.7767 56.5083 40.9367 48.5435 44.0815C41.2185 46.9737 28.1758 45.8986 28.1758 45.8986" stroke="#1F545B"/>
<path d="M44.0044 23.3574L31.7598 32.7187" stroke="#1F545B"/>
<path d="M31.8481 32.8399C31.8481 32.8399 45.3405 30.7592 51.1638 25.1333C55.7107 20.7406 59.0764 10.8107 59.0764 10.8107C59.0764 10.8107 48.2478 10.7755 43.6598 14.9139C41.5568 16.8108 39.3889 20.8258 39.3889 20.8258" stroke="#1F545B"/>
<path d="M26.2354 19.5667C30.4068 13.6239 41.1184 8.63816 41.1184 8.63816C41.1184 8.63816 40.5481 21.3557 36.4487 27.6116C32.2541 34.0129 20.7824 39.1153 20.7824 39.1153C20.7824 39.1153 21.7689 25.9299 26.2354 19.5667Z" stroke="#1F545B"/>
<path d="M30.6968 25.1738L20.8707 39.2361" stroke="#1F545B"/>
<path d="M26.6797 46.4416C26.7033 46.2392 42.4184 47.4684 42.4184 47.4684C42.4184 47.4684 35.0565 52.7648 29.48 54.0081C22.5199 55.56 10.9387 52.4485 10.9387 52.4485L13.3831 49.9134" stroke="#1F545B"/>
<path d="M32.1645 38.8983L13.519 49.6287" stroke="#1F545B"/>
<path d="M31.737 32.9219L48.2664 28.9268C48.2664 28.9268 41.1022 38.3485 34.9253 42.4242C27.5332 47.3017 13.3839 49.9145 13.3839 49.9145L20.8713 39.235" stroke="#1F545B"/>
</svg>
