<svg width="900" height="1486" viewBox="0 0 900 1486" fill="none" xmlns="http://www.w3.org/2000/svg">
<g clip-path="url(#clip0_225_570)">
<rect width="900" height="1486" fill="#C9DCDA"/>
<path d="M917.774 -64C917.774 -64 684.617 107.276 685.216 274.186C685.812 440.231 915.748 443.537 917.774 609.568C919.897 783.521 662.005 784.75 671.242 958.41C679.848 1120.2 926.492 1105.65 917.774 1267.43C909.843 1414.63 685.216 1540 685.216 1540" stroke="white" stroke-width="2"/>
<path d="M865.799 -158C865.799 -158 658.128 24.4877 658.662 202.324C659.193 379.239 863.994 382.761 865.799 559.661C867.69 745.001 637.989 746.31 646.216 931.338C653.881 1103.72 873.564 1088.21 865.799 1260.59C858.734 1417.43 658.662 1551 658.662 1551" stroke="white"/>
<path d="M-30.7743 -51C-30.7743 -51 202.383 120.276 201.784 287.186C201.188 453.231 -28.7481 456.537 -30.7743 622.568C-32.8971 796.521 224.995 797.75 215.758 971.41C207.152 1133.2 -39.4918 1118.65 -30.7743 1280.43C-22.8426 1427.63 201.784 1553 201.784 1553" stroke="white" stroke-width="2"/>
<path d="M21.201 -145C21.201 -145 228.872 37.4877 228.338 215.324C227.807 392.239 23.0057 395.761 21.201 572.661C19.3102 758.001 249.011 759.31 240.784 944.338C233.119 1116.72 13.4365 1101.21 21.201 1273.59C28.2657 1430.43 228.338 1564 228.338 1564" stroke="white"/>
</g>
<defs>
<clipPath id="clip0_225_570">
<rect width="900" height="1486" fill="white"/>
</clipPath>
</defs>
</svg>
