<svg width="190" height="190" viewBox="0 0 190 190" fill="none" xmlns="http://www.w3.org/2000/svg">
<path d="M40 20H92L122.5 48.5L150 75.5L153 172H40V20Z" fill="white"/>
<path d="M131.701 120.939C131.701 121.432 131.897 121.904 132.245 122.251C132.593 122.599 133.065 122.795 133.557 122.795C134.049 122.795 134.521 122.599 134.869 122.251C135.217 121.904 135.412 121.432 135.412 120.939C135.412 120.447 135.217 119.975 134.869 119.627C134.521 119.279 134.049 119.084 133.557 119.084C133.065 119.084 132.593 119.279 132.245 119.627C131.897 119.975 131.701 120.447 131.701 120.939Z" fill="#4AA4B0"/>
<path d="M95.0186 11.875H31.9141V178.125H158.086V71.5469L95.0186 11.875ZM146.749 72.0478H94.7959V22.8779L146.749 72.0478ZM149.922 169.961H40.0781V20.0391H91.7715L91.8086 20.0762V75.0352H149.866L149.903 75.0723V169.961H149.922Z" fill="#1F545B"/>
<path d="M52.0459 98.3398H112.516V101.309H52.0459V98.3398Z" fill="#1F545B"/>
<path d="M118.657 98.3398H135.394V101.309H118.657V98.3398Z" fill="#4AA4B0"/>
<path d="M74.8682 119.084H126.265V122.053H74.8682V119.084Z" fill="#1F545B"/>
<path d="M52.0645 119.084H68.9863V122.053H52.0645V119.084Z" fill="#4AA4B0"/>
<path d="M51.9346 139.848H112.516V142.816H51.9346V139.848Z" fill="#1F545B"/>
<path d="M121.682 139.848H135.394V142.816H121.682V139.848Z" fill="#4AA4B0"/>
</svg>
