<svg width="838" height="1756" viewBox="0 0 838 1756" fill="none" xmlns="http://www.w3.org/2000/svg">
<path d="M24.8281 253.678C21.131 149.934 130.695 38.6725 161.964 9.09825C167.249 4.09892 174.197 1.53125 181.473 1.53125H808C824.569 1.53125 838 14.9627 838 31.5313V1725.47C838 1742.04 824.569 1755.47 808 1755.47H77.8264C54.5048 1755.47 39.3699 1729.54 48.1284 1707.93C56.8899 1686.3 64.6564 1660.68 64.1463 1638.64C62.8052 1580.67 3.61616 1568.71 3.38186 1510.72C3.14554 1452.23 59.7621 1439.55 64.1463 1381.32C68.4794 1323.76 19.4797 1298.99 24.8281 1241.56C29.5405 1190.96 68.854 1177.83 76.061 1127.69C85.407 1062.66 39.3654 1030.3 40.9129 964.274C42.0335 916.459 61.5108 892.95 64.1463 845.226C69.7176 744.341 -9.30748 697.403 3.38186 597.515C13.3739 518.86 82.0695 498.926 83.2097 419.311C84.2207 348.719 27.3418 324.213 24.8281 253.678Z" fill="#DFF4F2"/>
<path d="M170.625 1.53125C170.625 1.53125 20.5657 132.77 24.8877 253.785C27.4079 324.349 84.4351 348.866 83.4214 419.488C82.2782 499.136 13.4036 519.078 3.38546 597.767C-9.33697 697.697 69.8942 744.654 64.3084 845.582C61.666 893.326 42.1379 916.845 41.0143 964.681C39.4629 1030.73 85.6245 1063.11 76.2541 1128.17C69.0284 1178.33 29.6124 1191.47 24.8877 1242.09C19.5253 1299.54 68.6528 1324.32 64.3084 1381.9C59.9127 1440.16 1.93314 1456.52 2.17008 1515.04C2.40499 1573.05 82.1235 1592.26 63.8863 1645.71C41.2649 1712.01 71.6499 1745.16 71.6499 1745.16" stroke="black" stroke-width="3"/>
</svg>
