<svg width="86" height="86" viewBox="0 0 86 86" fill="none" xmlns="http://www.w3.org/2000/svg">
<path d="M43.8398 51.752C43.8398 51.9747 43.7514 52.1883 43.5939 52.3458C43.4364 52.5033 43.2227 52.5918 43 52.5918C42.7773 52.5918 42.5636 52.5033 42.4061 52.3458C42.2486 52.1883 42.1602 51.9747 42.1602 51.752C42.1602 51.5292 42.2486 51.3156 42.4061 51.1581C42.5636 51.0006 42.7773 50.9121 43 50.9121C43.2227 50.9121 43.4364 51.0006 43.5939 51.1581C43.7514 51.3156 43.8398 51.5292 43.8398 51.752Z" fill="#4AA4B0"/>
<path d="M43.8735 55.1699C43.8735 55.3927 43.7851 55.6063 43.6276 55.7638C43.47 55.9213 43.2564 56.0098 43.0337 56.0098C42.811 56.0098 42.5973 55.9213 42.4398 55.7638C42.2823 55.6063 42.1939 55.3927 42.1939 55.1699C42.1939 54.9472 42.2823 54.7336 42.4398 54.5761C42.5973 54.4186 42.811 54.3301 43.0337 54.3301C43.2564 54.3301 43.47 54.4186 43.6276 54.5761C43.7851 54.7336 43.8735 54.9472 43.8735 55.1699Z" fill="#4AA4B0"/>
<path d="M43.8062 58.5957C43.8062 58.8184 43.7177 59.0321 43.5602 59.1896C43.4027 59.3471 43.189 59.4355 42.9663 59.4355C42.7436 59.4355 42.53 59.3471 42.3724 59.1896C42.2149 59.0321 42.1265 58.8184 42.1265 58.5957C42.1265 58.373 42.2149 58.1593 42.3724 58.0018C42.53 57.8443 42.7436 57.7559 42.9663 57.7559C43.189 57.7559 43.4027 57.8443 43.5602 58.0018C43.7177 58.1593 43.8062 58.373 43.8062 58.5957Z" fill="#4AA4B0"/>
<path d="M43 10.9844C39.4643 10.9844 36.1385 12.3617 33.6357 14.8645C31.133 17.3672 29.7557 20.693 29.7557 24.2287C29.7557 27.7645 31.133 31.0902 33.6357 33.593C36.1385 36.0957 39.4643 37.473 43 37.473C46.5357 37.473 49.8615 36.0957 52.3643 33.593C54.867 31.0902 56.2443 27.7645 56.2443 24.2287C56.2443 20.693 54.867 17.3672 52.3643 14.8645C49.8615 12.3617 46.5357 10.9844 43 10.9844ZM43 7.28906C52.3559 7.28906 59.9313 14.8729 59.9313 24.2203C59.9313 33.5762 52.3475 41.1516 43 41.1516C33.6441 41.1516 26.0688 33.5678 26.0688 24.2203C26.0688 14.8729 33.6525 7.28906 43 7.28906ZM42.9748 43.965L78.9453 57.2262V78.701H7.05469V57.2262L42.9748 43.965ZM10.75 75.0057H75.25V59.8465L42.9748 47.8871L10.75 59.8465V75.0057Z" fill="#1F545B"/>
<path d="M39.3553 49.1553L39.4729 49.1133V62.5424C39.4729 63.525 39.876 64.4152 40.5143 65.0619C41.1609 65.7086 42.0512 66.1033 43.0338 66.1033C44.999 66.1033 46.5947 64.5076 46.5947 62.5424V49.1553L46.7123 49.1973L47.9385 49.634V62.5508C47.9385 65.2551 45.7381 67.4555 43.0338 67.4555C40.3295 67.4555 38.1291 65.2551 38.1291 62.5508V49.592L39.3553 49.1553Z" fill="#4AA4B0"/>
</svg>
