<svg width="190" height="190" viewBox="0 0 190 190" fill="none" xmlns="http://www.w3.org/2000/svg">
<path d="M40.9131 45.5322C34.8271 51.6182 30.6895 59.1143 28.8154 67.2969H31.877C35.3652 53.3252 45.8115 42.0811 59.3379 37.4795V34.3438C52.4541 36.4961 46.1641 40.2812 40.9131 45.5322Z" fill="#45929C"/>
<path d="M178.106 100.343C178.106 121.421 161.018 138.528 139.939 138.547H109.64V130.383H139.939C147.955 130.383 155.488 127.247 161.147 121.588C166.825 115.91 169.942 108.377 169.942 100.343C169.942 92.3271 166.825 84.7754 161.147 79.1162C155.47 73.457 147.918 70.3213 139.902 70.3213C137.769 70.3213 135.672 70.5439 133.631 70.9707C130.848 71.5645 128.176 72.5293 125.689 73.8838C125.504 71.0264 125.077 68.1875 124.428 65.4229V65.4043C123.76 62.5098 122.832 59.6895 121.663 56.9248C118.991 50.6348 115.188 44.9756 110.326 40.1143C105.465 35.2529 99.8242 31.4492 93.5156 28.7773C87.0029 26.0313 80.082 24.6211 72.9385 24.6211C65.7949 24.6211 58.874 26.0127 52.3613 28.7773C46.0713 31.4307 40.4121 35.2529 35.5508 40.1143C30.6895 44.9756 26.8857 50.6348 24.2139 56.9248C21.4492 63.4375 20.0576 70.3584 20.0576 77.502C20.0576 84.6455 21.4492 91.5664 24.2139 98.0791C26.8672 104.369 30.6895 110.028 35.5508 114.89C40.4121 119.751 46.0713 123.555 52.3613 126.227C58.874 128.973 65.7949 130.383 72.9385 130.383H80.3047V138.547H72.6973C39.0947 138.417 11.8936 111.142 11.8936 77.502C11.8936 43.7881 39.2246 16.457 72.9385 16.457C101.624 16.457 125.689 36.2363 132.221 62.8994V62.918C134.707 62.417 137.268 62.1387 139.902 62.1387C160.999 62.1572 178.106 79.2461 178.106 100.343Z" fill="#1F545B"/>
<path d="M128.565 118.025H124.372L96.4473 90.1006V173.522H93.4785V90.1377L65.5723 118.025H61.3789L94.9629 84.4414L128.565 118.025Z" fill="#45929C"/>
</svg>
