<svg width="161" height="161" viewBox="0 0 161 161" fill="none" xmlns="http://www.w3.org/2000/svg">
<circle cx="80.5" cy="80.5" r="79" fill="white" stroke="#1F545B" stroke-width="3"/>
<circle cx="80.5016" cy="57.9479" r="30.8815" fill="#1F545B"/>
<ellipse cx="80.5" cy="122.829" rx="54.8233" ry="19.431" fill="#1F545B"/>
<path d="M118.156 30.7946L115.679 42.5176" stroke="#1F545B" stroke-width="1.2"/>
<path d="M121.511 19.3655C121.511 19.3655 115.988 23.1525 114.817 27.0422C114.605 27.7469 114.406 28.8825 114.406 28.8825" stroke="#1F545B" stroke-width="1.2"/>
<path d="M111.667 56.9026L116.09 47.8968" stroke="#1F545B" stroke-width="1.2"/>
<path d="M121.14 19.9215C123.569 25.0914 123.831 28.233 122.288 33.7331C120.87 38.7913 115.037 45.2868 115.037 45.2868" stroke="#1F545B" stroke-width="1.2"/>
<path d="M109.446 27.7852L109.48 38.0666" stroke="#1F545B" stroke-width="1.2"/>
<path d="M109.582 38.0651C109.582 38.0651 113.919 30.0577 113.279 24.6945C112.78 20.5069 108.862 14.7131 108.862 14.7131C108.862 14.7131 104.475 20.4518 104.823 24.5587C104.983 26.4412 106.241 29.2125 106.241 29.2125" stroke="#1F545B" stroke-width="1.2"/>
<path d="M100.265 35.6936C98.7902 31.0802 100.462 23.3782 100.462 23.3782C100.462 23.3782 106.989 28.8114 108.659 33.5129C110.367 38.3236 108.451 46.4765 108.451 46.4765C108.451 46.4765 101.844 40.6335 100.265 35.6936Z" stroke="#1F545B" stroke-width="1.2"/>
<path d="M105.043 35.5859L108.55 46.4789" stroke="#1F545B" stroke-width="1.2"/>
<path d="M114.722 46.2997C114.624 46.2055 121.616 38.3524 121.616 38.3524C121.616 38.3524 121.46 44.4001 119.871 47.8643C117.888 52.188 111.563 57.0856 111.563 57.0856L111.203 54.7643" stroke="#1F545B" stroke-width="1.2"/>
<path d="M112.929 40.3439L111.108 54.5783" stroke="#1F545B" stroke-width="1.2"/>
<path d="M109.581 38.1575L114.126 27.7644C114.126 27.7644 116.242 35.3712 115.915 40.2969C115.525 46.1916 111.205 54.7627 111.205 54.7627L108.552 46.4768" stroke="#1F545B" stroke-width="1.2"/>
<path d="M42.7782 31.4879L45.2552 43.211" stroke="#1F545B" stroke-width="1.2"/>
<path d="M39.4225 20.0589C39.4225 20.0589 44.9458 23.8458 46.1164 27.7355C46.3285 28.4402 46.5277 29.5758 46.5277 29.5758" stroke="#1F545B" stroke-width="1.2"/>
<path d="M49.2668 57.596L44.8432 48.5902" stroke="#1F545B" stroke-width="1.2"/>
<path d="M39.7945 20.6149C37.3651 25.7847 37.1039 28.9264 38.6462 34.4264C40.0645 39.4847 45.8971 45.9802 45.8971 45.9802" stroke="#1F545B" stroke-width="1.2"/>
<path d="M51.4873 28.4785L51.4534 38.76" stroke="#1F545B" stroke-width="1.2"/>
<path d="M51.3528 38.7585C51.3528 38.7585 47.0154 30.751 47.6551 25.3879C48.1547 21.2002 52.0724 15.4065 52.0724 15.4065C52.0724 15.4065 56.4593 21.1452 56.1115 25.2521C55.9521 27.1345 54.6935 29.9059 54.6935 29.9059" stroke="#1F545B" stroke-width="1.2"/>
<path d="M60.6679 36.387C62.1424 31.7736 60.4701 24.0716 60.4701 24.0716C60.4701 24.0716 53.9438 29.5048 52.2739 34.2063C50.5651 39.017 52.482 47.1698 52.482 47.1698C52.482 47.1698 59.0891 41.3268 60.6679 36.387Z" stroke="#1F545B" stroke-width="1.2"/>
<path d="M55.8906 36.2793L52.3836 47.1722" stroke="#1F545B" stroke-width="1.2"/>
<path d="M46.2107 46.995C46.3087 46.9008 39.3162 39.0477 39.3162 39.0477C39.3162 39.0477 39.4722 45.0954 41.0612 48.5596C43.0444 52.8833 49.3693 57.7809 49.3693 57.7809L49.73 55.4596" stroke="#1F545B" stroke-width="1.2"/>
<path d="M48.0059 41.0373L49.8266 55.2716" stroke="#1F545B" stroke-width="1.2"/>
<path d="M51.3547 38.8548L46.8092 28.4616C46.8092 28.4616 44.6938 36.0684 45.0203 40.9942C45.4109 46.8889 49.7306 55.46 49.7306 55.46L52.3839 47.1741" stroke="#1F545B" stroke-width="1.2"/>
</svg>
