<svg width="132" height="98" viewBox="0 0 132 98" fill="none" xmlns="http://www.w3.org/2000/svg">
<path d="M9.27446 83.7355C9.27446 83.7355 8.1231 76.5969 9.02001 72.1686C9.87447 67.9498 13.4237 62.0643 13.4237 62.0643" stroke="#1F545B" stroke-width="2"/>
<path d="M32.6603 68.4148C32.6603 68.4148 37.4089 44.6921 48.3322 36.7389C49.4202 35.9468 50.542 35.2124 52.4461 35.4167C54.3502 35.6209 54.2729 38.5369 54.2729 38.5369" stroke="#1F545B" stroke-width="2"/>
<path d="M46.7316 55.2104L18.9688 48.3428L74.935 32.8794L128.489 49.4758L102.722 57.8113" stroke="#1F545B" stroke-width="2"/>
<path d="M22.5779 77.9643L19.1273 72.0704C19.1273 72.0704 21.9681 69.8863 24.0967 69.1611C26.2807 68.4169 29.9611 68.4433 29.9611 68.4433L31.1113 70.4079C31.1113 70.4079 29.7608 73.1658 28.414 74.5475C26.5706 76.4387 22.5779 77.9643 22.5779 77.9643Z" fill="#C9DCDA" stroke="#1F545B" stroke-width="2"/>
<path d="M29.8053 68.4419C29.8053 68.4419 30.0411 67.5441 30.5105 67.2684C31.0867 66.9301 32.1668 67.4397 32.1668 67.4397L33.1618 69.139C33.1618 69.139 32.7816 70.026 32.2682 70.2707C31.8449 70.4724 31.5142 70.4955 31.088 70.3531" stroke="#1F545B" stroke-width="2"/>
<path d="M74.8177 65.1481C64.5437 64.9235 48.7243 68.5535 48.7243 68.5535L46.1947 50.7149C46.1947 50.7149 64.3336 45.5374 76.2089 45.7899C87.4137 46.0281 104.365 51.3411 104.365 51.3411L99.7954 69.3789C99.7954 69.3789 84.7087 65.3643 74.8177 65.1481Z" fill="#C9DCDA" stroke="#1F545B" stroke-width="2"/>
</svg>
